RobotoMono-Bold.ufo
<glyph name="exclam" format="2">
  <advance width="1229"/>
  <unicode hex="0021"/>
  <outline>
    <contour>
      <point x="735" y="509" type="line"/>
      <point x="482" y="509" type="line"/>
      <point x="466" y="1456" type="line"/>
      <point x="751" y="1456" type="line"/>
    </contour>
    <contour>
      <point x="446" y="136" type="qcurve" smooth="yes"/>
      <point x="446.0" y="202.0"/>
      <point x="532.0000000000001" y="290.0"/>
      <point x="608" y="290" type="qcurve" smooth="yes"/>
      <point x="682.0" y="290.0"/>
      <point x="770.0" y="202.0"/>
      <point x="770" y="136" type="qcurve" smooth="yes"/>
      <point x="770.0" y="72.00000000000001"/>
      <point x="682.0" y="-15.0"/>
      <point x="608" y="-15" type="qcurve" smooth="yes"/>
      <point x="532.0000000000001" y="-15.0"/>
      <point x="446.0" y="72.00000000000001"/>
    </contour>
  </outline>
</glyph>
<glyph name="quotedbl" format="2">
  <advance width="1229"/>
  <unicode hex="0022"/>
  <outline>
    <contour>
      <point x="487" y="1428" type="line"/>
      <point x="458" y="1008" type="line"/>
      <point x="281" y="1008" type="line"/>
      <point x="281" y="1423" type="line"/>
      <point x="281" y="1536" type="line"/>
      <point x="487" y="1536" type="line"/>
    </contour>
    <contour>
      <point x="898" y="1428" type="line"/>
      <point x="870" y="1008" type="line"/>
      <point x="693" y="1008" type="line"/>
      <point x="693" y="1426" type="line"/>
      <point x="693" y="1536" type="line"/>
      <point x="898" y="1536" type="line"/>
    </contour>
  </outline>
</glyph>
<glyph name="percent" format="2">
  <advance width="1229"/>
  <unicode hex="0025"/>
  <outline>
    <contour>
      <point x="35" y="1196" type="line" smooth="yes"/>
      <point x="35" y="1254"/>
      <point x="70" y="1356"/>
      <point x="105.5" y="1394.0" type="qcurve" smooth="yes" name="inserted"/>
      <point x="141" y="1432"/>
      <point x="248" y="1477"/>
      <point x="319" y="1477" type="qcurve" smooth="yes"/>
      <point x="392" y="1477"/>
      <point x="499" y="1432"/>
      <point x="534.0" y="1394.0" type="qcurve" smooth="yes" name="inserted"/>
      <point x="569" y="1356"/>
      <point x="604" y="1254"/>
      <point x="604" y="1196" type="qcurve" smooth="yes"/>
      <point x="604" y="1119" type="line" smooth="yes"/>
      <point x="604" y="1062"/>
      <point x="569" y="961"/>
      <point x="534.0" y="922.5" type="qcurve" smooth="yes" name="inserted"/>
      <point x="499" y="884"/>
      <point x="393" y="840"/>
      <point x="321" y="840" type="qcurve" smooth="yes"/>
      <point x="249" y="840"/>
      <point x="142" y="884"/>
      <point x="106.5" y="922.5" type="qcurve" smooth="yes" name="inserted"/>
      <point x="71" y="961"/>
      <point x="35" y="1062"/>
      <point x="35" y="1119" type="qcurve" smooth="yes"/>
    </contour>
    <contour>
      <point x="223" y="1119" type="line" smooth="yes"/>
      <point x="223" y="1096"/>
      <point x="233" y="1053"/>
      <point x="244.5" y="1036.5" type="qcurve" smooth="yes" name="inserted"/>
      <point x="256" y="1020"/>
      <point x="294" y="1001"/>
      <point x="321" y="1001" type="qcurve" smooth="yes"/>
      <point x="348" y="1001"/>
      <point x="385" y="1020"/>
      <point x="396.0" y="1036.5" type="qcurve" smooth="yes" name="inserted"/>
      <point x="407" y="1053"/>
      <point x="417" y="1096"/>
      <point x="417" y="1119" type="qcurve" smooth="yes"/>
      <point x="417" y="1196" type="line" smooth="yes"/>
      <point x="417" y="1219"/>
      <point x="407" y="1262"/>
      <point x="395.5" y="1278.5" type="qcurve" smooth="yes" name="inserted"/>
      <point x="384" y="1295"/>
      <point x="347" y="1314"/>
      <point x="319" y="1314" type="qcurve" smooth="yes"/>
      <point x="292" y="1314"/>
      <point x="256" y="1295"/>
      <point x="244.5" y="1278.5" type="qcurve" smooth="yes" name="inserted"/>
      <point x="233" y="1262"/>
      <point x="223" y="1219"/>
      <point x="223" y="1196" type="qcurve" smooth="yes"/>
    </contour>
    <contour>
      <point x="623" y="337" type="line" smooth="yes"/>
      <point x="623" y="394"/>
      <point x="659" y="496"/>
      <point x="694.5" y="534.5" type="qcurve" smooth="yes" name="inserted"/>
      <point x="730" y="573"/>
      <point x="837" y="617"/>
      <point x="908" y="617" type="qcurve" smooth="yes"/>
      <point x="981" y="617"/>
      <point x="1088" y="573"/>
      <point x="1123.0" y="534.5" type="qcurve" smooth="yes" name="inserted"/>
      <point x="1158" y="496"/>
      <point x="1193" y="394"/>
      <point x="1193" y="337" type="qcurve" smooth="yes"/>
      <point x="1193" y="259" type="line" smooth="yes"/>
      <point x="1193" y="202"/>
      <point x="1159" y="100"/>
      <point x="1123.5" y="62.0" type="qcurve" smooth="yes" name="inserted"/>
      <point x="1088" y="24"/>
      <point x="982" y="-20"/>
      <point x="910" y="-20" type="qcurve" smooth="yes"/>
      <point x="838" y="-20"/>
      <point x="730" y="24"/>
      <point x="694.5" y="62.0" type="qcurve" smooth="yes" name="inserted"/>
      <point x="659" y="100"/>
      <point x="623" y="202"/>
      <point x="623" y="259" type="qcurve" smooth="yes"/>
    </contour>
    <contour>
      <point x="811" y="259" type="line" smooth="yes"/>
      <point x="811" y="236"/>
      <point x="823" y="193"/>
      <point x="835.5" y="176.5" type="qcurve" smooth="yes" name="inserted"/>
      <point x="848" y="160"/>
      <point x="885" y="141"/>
      <point x="910" y="141" type="qcurve" smooth="yes"/>
      <point x="941" y="141"/>
      <point x="979" y="160"/>
      <point x="989.0" y="176.5" type="qcurve" smooth="yes" name="inserted"/>
      <point x="999" y="193"/>
      <point x="1005" y="235"/>
      <point x="1005" y="259" type="qcurve" smooth="yes"/>
      <point x="1005" y="337" type="line" smooth="yes"/>
      <point x="1005" y="360"/>
      <point x="995" y="402"/>
      <point x="983.5" y="418.5" type="qcurve" smooth="yes" name="inserted"/>
      <point x="972" y="435"/>
      <point x="935" y="454"/>
      <point x="908" y="454" type="qcurve" smooth="yes"/>
      <point x="881" y="454"/>
      <point x="843" y="435"/>
      <point x="832.0" y="418.5" type="qcurve" smooth="yes" name="inserted"/>
      <point x="821" y="402"/>
      <point x="811" y="360"/>
      <point x="811" y="337" type="qcurve" smooth="yes"/>
    </contour>
    <contour>
      <point x="415" y="198" type="line"/>
      <point x="279" y="263" type="line"/>
      <point x="840" y="1291" type="line"/>
      <point x="976" y="1226" type="line"/>
    </contour>
  </outline>
</glyph>
<glyph name="comma" format="2">
  <advance width="1229"/>
  <unicode hex="002C"/>
  <outline>
    <contour>
      <point x="710" y="22" type="line"/>
      <point x="710.0" y="-92.0"/>
      <point x="597.0" y="-326.0"/>
      <point x="507" y="-406" type="qcurve"/>
      <point x="360" y="-330" type="line"/>
      <point x="397.99999999999994" y="-258.0"/>
      <point x="450.0" y="-101.0"/>
      <point x="450" y="9" type="qcurve" smooth="yes"/>
      <point x="450" y="243" type="line"/>
      <point x="711" y="243" type="line"/>
    </contour>
  </outline>
</glyph>
<glyph name="hyphen" format="2">
  <advance width="1229"/>
  <unicode hex="002D"/>
  <outline>
    <contour>
      <point x="1115" y="530" type="line"/>
      <point x="282" y="530" type="line"/>
      <point x="282" y="755" type="line"/>
      <point x="1115" y="755" type="line"/>
    </contour>
  </outline>
</glyph>
<glyph name="period" format="2">
  <advance width="1229"/>
  <unicode hex="002E"/>
  <outline>
    <contour>
      <point x="422" y="161" type="qcurve" smooth="yes"/>
      <point x="422.0" y="238.2279583551097"/>
      <point x="524.0911920093316" y="345.0"/>
      <point x="615" y="345" type="qcurve" smooth="yes"/>
      <point x="704.9999999999999" y="345.0"/>
      <point x="808.0" y="239.00000000000003"/>
      <point x="808" y="161" type="qcurve" smooth="yes"/>
      <point x="808.0" y="83.41666666666666"/>
      <point x="703.1999999999999" y="-20.0"/>
      <point x="615" y="-20" type="qcurve" smooth="yes"/>
      <point x="525.8908172825659" y="-20.0"/>
      <point x="422.0" y="84.23256214121331"/>
    </contour>
  </outline>
</glyph>
<glyph name="four" format="2">
  <advance width="1229"/>
  <unicode hex="0034"/>
  <outline>
    <contour>
      <point x="953" y="541" type="line"/>
      <point x="1122" y="541" type="line"/>
      <point x="1122" y="316" type="line"/>
      <point x="953" y="316" type="line"/>
      <point x="953" y="0" type="line"/>
      <point x="675" y="0" type="line"/>
      <point x="675" y="316" type="line"/>
      <point x="70" y="316" type="line"/>
      <point x="59" y="490" type="line"/>
      <point x="671" y="1456" type="line"/>
      <point x="953" y="1456" type="line"/>
    </contour>
    <contour>
      <point x="332" y="541" type="line"/>
      <point x="675" y="541" type="line"/>
      <point x="675" y="1082" type="line"/>
      <point x="648" y="1034" type="line"/>
    </contour>
  </outline>
</glyph>
<glyph name="six" format="2">
  <advance width="1229"/>
  <unicode hex="0036"/>
  <outline>
    <contour>
      <point x="879" y="1468" type="line"/>
      <point x="879" y="1237" type="line"/>
      <point x="863" y="1237" type="line" smooth="yes"/>
      <point x="753" y="1237"/>
      <point x="584" y="1179"/>
      <point x="524.5" y="1126.0" type="qcurve" smooth="yes" name="inserted"/>
      <point x="465" y="1073"/>
      <point x="396" y="925"/>
      <point x="387" y="834" type="qcurve"/>
      <point x="410" y="859"/>
      <point x="470" y="908"/>
      <point x="507.5" y="927.5" type="qcurve" smooth="yes" name="inserted"/>
      <point x="545" y="947"/>
      <point x="633" y="971"/>
      <point x="684" y="971" type="qcurve" smooth="yes"/>
      <point x="788" y="971"/>
      <point x="943" y="892"/>
      <point x="995.0" y="824.5" type="qcurve" smooth="yes" name="inserted"/>
      <point x="1047" y="757"/>
      <point x="1098" y="578"/>
      <point x="1098" y="479" type="qcurve" smooth="yes"/>
      <point x="1098" y="373"/>
      <point x="1030" y="191"/>
      <point x="967.0" y="124.0" type="qcurve" smooth="yes" name="inserted"/>
      <point x="904" y="57"/>
      <point x="724" y="-20"/>
      <point x="612" y="-20" type="qcurve" smooth="yes"/>
      <point x="495" y="-20"/>
      <point x="307" y="67"/>
      <point x="241.5" y="144.0" type="qcurve" smooth="yes" name="inserted"/>
      <point x="176" y="221"/>
      <point x="105" y="432"/>
      <point x="105" y="557" type="qcurve" smooth="yes"/>
      <point x="105" y="664" type="line" smooth="yes"/>
      <point x="105" y="837"/>
      <point x="199" y="1132"/>
      <point x="292.0" y="1239.5" type="qcurve" smooth="yes" name="inserted"/>
      <point x="385" y="1347"/>
      <point x="661" y="1468"/>
      <point x="842" y="1468" type="qcurve" smooth="yes"/>
    </contour>
    <contour>
      <point x="603" y="748" type="qcurve" smooth="yes"/>
      <point x="563" y="748"/>
      <point x="493" y="725"/>
      <point x="464" y="704" type="qcurve" smooth="yes"/>
      <point x="439" y="685"/>
      <point x="398" y="635"/>
      <point x="384" y="605" type="qcurve"/>
      <point x="384" y="523" type="line" smooth="yes"/>
      <point x="384" y="443"/>
      <point x="417" y="323"/>
      <point x="447" y="284" type="qcurve" smooth="yes" name="inserted"/>
      <point x="477" y="244"/>
      <point x="559" y="204"/>
      <point x="607" y="204" type="qcurve" smooth="yes"/>
      <point x="656" y="204"/>
      <point x="736" y="245"/>
      <point x="764" y="281" type="qcurve" smooth="yes" name="inserted"/>
      <point x="792" y="317"/>
      <point x="822" y="416"/>
      <point x="822" y="475" type="qcurve" smooth="yes"/>
      <point x="822" y="534"/>
      <point x="792" y="634"/>
      <point x="764" y="671" type="qcurve" smooth="yes" name="inserted"/>
      <point x="736" y="707"/>
      <point x="655" y="748"/>
    </contour>
  </outline>
</glyph>
<glyph name="A" format="2">
  <advance width="1229"/>
  <unicode hex="0041"/>
  <outline>
    <contour>
      <point x="847" y="304" type="line"/>
      <point x="410" y="304" type="line"/>
      <point x="324" y="0" type="line"/>
      <point x="28" y="0" type="line"/>
      <point x="505" y="1456" type="line"/>
      <point x="760" y="1456" type="line"/>
      <point x="1228" y="0" type="line"/>
      <point x="932" y="0" type="line"/>
    </contour>
    <contour>
      <point x="479" y="543" type="line"/>
      <point x="781" y="543" type="line"/>
      <point x="632" y="1079" type="line"/>
    </contour>
  </outline>
</glyph>
<glyph name="D" format="2">
  <advance width="1229"/>
  <unicode hex="0044"/>
  <outline>
    <contour>
      <point x="125" y="0" type="line"/>
      <point x="125" y="1456" type="line"/>
      <point x="502" y="1456" type="line" smooth="yes"/>
      <point x="603" y="1456"/>
      <point x="779" y="1407"/>
      <point x="851" y="1362" type="qcurve" smooth="yes"/>
      <point x="913.7710850480921" y="1324.7296682526953"/>
      <point x="1013.2811280752771" y="1218.2380572036898"/>
      <point x="1050" y="1155" type="qcurve" smooth="yes"/>
      <point x="1093" y="1078"/>
      <point x="1140" y="892"/>
      <point x="1140" y="787" type="qcurve" smooth="yes"/>
      <point x="1140" y="667" type="line" smooth="yes"/>
      <point x="1140" y="566"/>
      <point x="1096" y="386"/>
      <point x="1056" y="311" type="qcurve" smooth="yes"/>
      <point x="1018.3480273051547" y="243.62278570396114"/>
      <point x="915.5597702358598" y="131.35452114937783"/>
      <point x="855" y="93" type="qcurve" smooth="yes"/>
      <point x="784" y="48"/>
      <point x="613" y="0"/>
      <point x="516" y="0" type="qcurve" smooth="yes"/>
    </contour>
    <contour>
      <point x="408" y="1228" type="line"/>
      <point x="408" y="226" type="line"/>
      <point x="516" y="226" type="line" smooth="yes"/>
      <point x="568" y="226"/>
      <point x="658" y="252"/>
      <point x="695" y="277" type="qcurve" smooth="yes"/>
      <point x="733.0" y="303.0"/>
      <point x="794.0" y="384.0"/>
      <point x="816" y="438" type="qcurve" smooth="yes"/>
      <point x="834" y="485"/>
      <point x="853" y="600"/>
      <point x="853" y="667" type="qcurve" smooth="yes"/>
      <point x="853" y="789" type="line" smooth="yes"/>
      <point x="853" y="852"/>
      <point x="834" y="965"/>
      <point x="816" y="1012" type="qcurve" smooth="yes"/>
      <point x="794.4054631179454" y="1068.145795893342"/>
      <point x="722.5618788868519" y="1156.062872667889"/>
      <point x="676" y="1184" type="qcurve" smooth="yes"/>
      <point x="640" y="1205"/>
      <point x="553" y="1228"/>
      <point x="502" y="1228" type="qcurve" smooth="yes"/>
    </contour>
  </outline>
</glyph>
<glyph name="I" format="2">
  <advance width="1229"/>
  <unicode hex="0049"/>
  <outline>
    <contour>
      <point x="193" y="1456" type="line"/>
      <point x="1035" y="1456" type="line"/>
      <point x="1035" y="1229" type="line"/>
      <point x="751" y="1229" type="line"/>
      <point x="751" y="226" type="line"/>
      <point x="1035" y="226" type="line"/>
      <point x="1035" y="0" type="line"/>
      <point x="193" y="0" type="line"/>
      <point x="193" y="226" type="line"/>
      <point x="470" y="226" type="line"/>
      <point x="470" y="1229" type="line"/>
      <point x="193" y="1229" type="line"/>
    </contour>
  </outline>
</glyph>
<glyph name="K" format="2">
  <advance width="1229"/>
  <unicode hex="004B"/>
  <outline>
    <contour>
      <point x="565" y="598" type="line"/>
      <point x="411" y="429" type="line"/>
      <point x="411" y="0" type="line"/>
      <point x="129" y="0" type="line"/>
      <point x="129" y="1456" type="line"/>
      <point x="411" y="1456" type="line"/>
      <point x="411" y="789" type="line"/>
      <point x="543" y="967" type="line"/>
      <point x="897" y="1456" type="line"/>
      <point x="1241" y="1456" type="line"/>
      <point x="751" y="812" type="line"/>
      <point x="1259" y="0" type="line"/>
      <point x="925" y="0" type="line"/>
    </contour>
  </outline>
</glyph>
<glyph name="M" format="2">
  <advance width="1229"/>
  <unicode hex="004D"/>
  <outline>
    <contour>
      <point x="476" y="1456" type="line"/>
      <point x="614" y="909" type="line"/>
      <point x="771" y="1456" type="line"/>
      <point x="1120" y="1456" type="line"/>
      <point x="1120" y="0" type="line"/>
      <point x="862" y="0" type="line"/>
      <point x="862" y="431" type="line"/>
      <point x="874" y="1112" type="line"/>
      <point x="683" y="480" type="line"/>
      <point x="544" y="480" type="line"/>
      <point x="373" y="1085" type="line"/>
      <point x="385" y="431" type="line"/>
      <point x="385" y="0" type="line"/>
      <point x="127" y="0" type="line"/>
      <point x="127" y="1456" type="line"/>
    </contour>
  </outline>
</glyph>
<glyph name="O" format="2">
  <advance width="1229"/>
  <unicode hex="004F"/>
  <outline>
    <contour>
      <point x="1147" y="621" type="line" smooth="yes"/>
      <point x="1147" y="527"/>
      <point x="1113" y="358"/>
      <point x="1081" y="286" type="qcurve" smooth="yes"/>
      <point x="1047" y="214"/>
      <point x="947" y="94"/>
      <point x="883" y="54" type="qcurve" smooth="yes"/>
      <point x="825" y="19"/>
      <point x="686" y="-20"/>
      <point x="606" y="-20" type="qcurve" smooth="yes"/>
      <point x="521" y="-20"/>
      <point x="377" y="24"/>
      <point x="318" y="64" type="qcurve" smooth="yes"/>
      <point x="259.7906359180893" y="105.57811720136479"/>
      <point x="167.8298388137293" y="224.8522678915348"/>
      <point x="137" y="300" type="qcurve" smooth="yes"/>
      <point x="109" y="369"/>
      <point x="80" y="531"/>
      <point x="80" y="621" type="qcurve" smooth="yes"/>
      <point x="80" y="833" type="line" smooth="yes"/>
      <point x="80" y="929"/>
      <point x="113" y="1101"/>
      <point x="145" y="1174" type="qcurve" smooth="yes"/>
      <point x="176" y="1243"/>
      <point x="265" y="1355"/>
      <point x="323" y="1395" type="qcurve" smooth="yes"/>
      <point x="380" y="1434"/>
      <point x="522" y="1476"/>
      <point x="605" y="1476" type="qcurve" smooth="yes"/>
      <point x="689" y="1476"/>
      <point x="836" y="1433"/>
      <point x="895" y="1393" type="qcurve" smooth="yes"/>
      <point x="954" y="1355"/>
      <point x="1043" y="1247"/>
      <point x="1075" y="1182" type="qcurve" smooth="yes"/>
      <point x="1110" y="1108"/>
      <point x="1147" y="932"/>
      <point x="1147" y="833" type="qcurve" smooth="yes"/>
    </contour>
    <contour>
      <point x="862" y="835" type="line" smooth="yes"/>
      <point x="862" y="891"/>
      <point x="851" y="992"/>
      <point x="839" y="1035" type="qcurve" smooth="yes"/>
      <point x="824" y="1089"/>
      <point x="774" y="1174"/>
      <point x="740" y="1201" type="qcurve" smooth="yes"/>
      <point x="713" y="1221"/>
      <point x="646" y="1243"/>
      <point x="605" y="1243" type="qcurve" smooth="yes"/>
      <point x="566" y="1243"/>
      <point x="503" y="1223"/>
      <point x="478" y="1204" type="qcurve" smooth="yes"/>
      <point x="444" y="1176"/>
      <point x="397" y="1092"/>
      <point x="384" y="1036" type="qcurve" smooth="yes"/>
      <point x="374" y="993"/>
      <point x="365" y="891"/>
      <point x="365" y="835" type="qcurve" smooth="yes"/>
      <point x="365" y="621" type="line" smooth="yes"/>
      <point x="365" y="568"/>
      <point x="373" y="470"/>
      <point x="383" y="428" type="qcurve" smooth="yes"/>
      <point x="394.4545454545455" y="374.5454545454546"/>
      <point x="436.59999999999997" y="288.3"/>
      <point x="466" y="261" type="qcurve" smooth="yes"/>
      <point x="493" y="237"/>
      <point x="562" y="211"/>
      <point x="606" y="211" type="qcurve" smooth="yes"/>
      <point x="648" y="211"/>
      <point x="718" y="235"/>
      <point x="745" y="258" type="qcurve" smooth="yes"/>
      <point x="779" y="286"/>
      <point x="826" y="371"/>
      <point x="840" y="425" type="qcurve" smooth="yes"/>
      <point x="851" y="467"/>
      <point x="862" y="567"/>
      <point x="862" y="621" type="qcurve" smooth="yes"/>
    </contour>
  </outline>
</glyph>
<glyph name="Q" format="2">
  <advance width="1229"/>
  <unicode hex="0051"/>
  <outline>
    <contour>
      <point x="1156" y="577" type="line"/>
      <point x="1155" y="502"/>
      <point x="1126" y="360"/>
      <point x="1098" y="297" type="qcurve" smooth="yes"/>
      <point x="1076" y="248"/>
      <point x="1015" y="159"/>
      <point x="976" y="122" type="qcurve"/>
      <point x="1217" y="-96" type="line"/>
      <point x="1036" y="-257" type="line"/>
      <point x="759" y="-1" type="line"/>
      <point x="724" y="-10"/>
      <point x="651" y="-20"/>
      <point x="612" y="-20" type="qcurve" smooth="yes"/>
      <point x="524" y="-20"/>
      <point x="376" y="28"/>
      <point x="316" y="71" type="qcurve" smooth="yes"/>
      <point x="255.37351922687336" y="115.30396671882332"/>
      <point x="164.0139266454954" y="236.96518338626151"/>
      <point x="136" y="307" type="qcurve" smooth="yes"/>
      <point x="111" y="368"/>
      <point x="85" y="505"/>
      <point x="85" y="577" type="qcurve" smooth="yes"/>
      <point x="85" y="829" type="line" smooth="yes"/>
      <point x="85" y="912"/>
      <point x="110" y="1065"/>
      <point x="134" y="1130" type="qcurve" smooth="yes"/>
      <point x="162" y="1211"/>
      <point x="256" y="1342"/>
      <point x="321" y="1388" type="qcurve" smooth="yes"/>
      <point x="380" y="1430"/>
      <point x="526" y="1476"/>
      <point x="612" y="1476" type="qcurve" smooth="yes"/>
      <point x="698" y="1476"/>
      <point x="848" y="1430"/>
      <point x="909" y="1388" type="qcurve" smooth="yes"/>
      <point x="978" y="1339"/>
      <point x="1082" y="1197"/>
      <point x="1112" y="1109" type="qcurve" smooth="yes"/>
      <point x="1134" y="1047"/>
      <point x="1156" y="906"/>
      <point x="1156" y="829" type="qcurve" smooth="yes"/>
    </contour>
    <contour>
      <point x="871" y="831" type="line" smooth="yes"/>
      <point x="871" y="890"/>
      <point x="859" y="998"/>
      <point x="845" y="1043" type="qcurve" smooth="yes"/>
      <point x="833" y="1090"/>
      <point x="787" y="1167"/>
      <point x="758" y="1194" type="qcurve" smooth="yes"/>
      <point x="730" y="1217"/>
      <point x="657" y="1243"/>
      <point x="612" y="1243" type="qcurve" smooth="yes"/>
      <point x="569" y="1243"/>
      <point x="501" y="1219"/>
      <point x="475" y="1196" type="qcurve" smooth="yes"/>
      <point x="437" y="1163"/>
      <point x="392" y="1060"/>
      <point x="382" y="996" type="qcurve" smooth="yes"/>
      <point x="376" y="959"/>
      <point x="370" y="876"/>
      <point x="370" y="831" type="qcurve" smooth="yes"/>
      <point x="370" y="577" type="line" smooth="yes"/>
      <point x="370" y="539"/>
      <point x="377" y="463"/>
      <point x="385" y="428" type="qcurve" smooth="yes"/>
      <point x="396.6759633992437" y="373.51217080352944"/>
      <point x="443.029482428729" y="285.79924976457613"/>
      <point x="478" y="257" type="qcurve" smooth="yes"/>
      <point x="503" y="235"/>
      <point x="570" y="211"/>
      <point x="612" y="211" type="qcurve" smooth="yes"/>
      <point x="655" y="211"/>
      <point x="725" y="236"/>
      <point x="753" y="257" type="qcurve" smooth="yes"/>
      <point x="788" y="286"/>
      <point x="837" y="372"/>
      <point x="851" y="421" type="qcurve" smooth="yes"/>
      <point x="861" y="458"/>
      <point x="871" y="537"/>
      <point x="871" y="577" type="qcurve" smooth="yes"/>
    </contour>
  </outline>
</glyph>
<glyph name="R" format="2">
  <advance width="1229"/>
  <unicode hex="0052"/>
  <outline>
    <contour>
      <point x="625" y="544" type="line"/>
      <point x="412" y="544" type="line"/>
      <point x="412" y="0" type="line"/>
      <point x="131" y="0" type="line"/>
      <point x="131" y="1456" type="line"/>
      <point x="619" y="1456" type="line" smooth="yes"/>
      <point x="740" y="1456"/>
      <point x="936" y="1399"/>
      <point x="1005.5" y="1344.0" type="qcurve" smooth="yes" name="inserted"/>
      <point x="1075" y="1289"/>
      <point x="1150" y="1125"/>
      <point x="1150" y="1017" type="qcurve" smooth="yes"/>
      <point x="1150" y="939"/>
      <point x="1113" y="814"/>
      <point x="1078.5" y="764.5" type="qcurve" smooth="yes" name="inserted"/>
      <point x="1044" y="715"/>
      <point x="947" y="641"/>
      <point x="887" y="614" type="qcurve"/>
      <point x="1200" y="13" type="line"/>
      <point x="1200" y="0" type="line"/>
      <point x="899" y="0" type="line"/>
    </contour>
    <contour>
      <point x="412" y="772" type="line"/>
      <point x="620" y="772" type="line" smooth="yes"/>
      <point x="685" y="772"/>
      <point x="784" y="809"/>
      <point x="815" y="844" type="qcurve" smooth="yes"/>
      <point x="841" y="872"/>
      <point x="868" y="950"/>
      <point x="868" y="998" type="qcurve" smooth="yes"/>
      <point x="868" y="1056"/>
      <point x="833" y="1145"/>
      <point x="798" y="1174" type="qcurve" smooth="yes"/>
      <point x="767" y="1200"/>
      <point x="677" y="1228"/>
      <point x="619" y="1228" type="qcurve" smooth="yes"/>
      <point x="412" y="1228" type="line"/>
    </contour>
  </outline>
</glyph>
<glyph name="V" format="2">
  <advance width="1229"/>
  <unicode hex="0056"/>
  <outline>
    <contour>
      <point x="471" y="0" type="line"/>
      <point x="31" y="1456" type="line"/>
      <point x="341" y="1456" type="line"/>
      <point x="588" y="505" type="line"/>
      <point x="613" y="407" type="line"/>
      <point x="640" y="506" type="line"/>
      <point x="888" y="1456" type="line"/>
      <point x="1198" y="1456" type="line"/>
      <point x="757" y="0" type="line"/>
    </contour>
  </outline>
</glyph>
<glyph name="W" format="2">
  <advance width="1229"/>
  <unicode hex="0057"/>
  <outline>
    <contour>
      <point x="226" y="0" type="line"/>
      <point x="26" y="1456" type="line"/>
      <point x="283" y="1456" type="line"/>
      <point x="380" y="642" type="line"/>
      <point x="387" y="585" type="line"/>
      <point x="396" y="645" type="line"/>
      <point x="511" y="1456" type="line"/>
      <point x="712" y="1456" type="line"/>
      <point x="834" y="639" type="line"/>
      <point x="843" y="579" type="line"/>
      <point x="850" y="640" type="line"/>
      <point x="949" y="1456" type="line"/>
      <point x="1207" y="1456" type="line"/>
      <point x="1005" y="0" type="line"/>
      <point x="751" y="0" type="line"/>
      <point x="624" y="786" type="line"/>
      <point x="613" y="860" type="line"/>
      <point x="602" y="786" type="line"/>
      <point x="480" y="0" type="line"/>
    </contour>
  </outline>
</glyph>
<glyph name="asciicircum" format="2">
  <advance width="1229"/>
  <unicode hex="005E"/>
  <outline>
    <contour>
      <point x="213" y="687" type="line"/>
      <point x="532" y="1456" type="line"/>
      <point x="733" y="1456" type="line"/>
      <point x="1051" y="687" type="line"/>
      <point x="828" y="687" type="line"/>
      <point x="652" y="1141" type="line"/>
      <point x="631" y="1225" type="line"/>
      <point x="610" y="1141" type="line"/>
      <point x="437" y="687" type="line"/>
    </contour>
  </outline>
</glyph>
<glyph name="d" format="2">
  <advance width="1229"/>
  <unicode hex="0064"/>
  <outline>
    <contour>
      <point x="112" y="549" type="line" smooth="yes"/>
      <point x="112" y="672"/>
      <point x="169" y="876"/>
      <point x="224.0" y="949.0" type="qcurve" smooth="yes" name="inserted"/>
      <point x="279" y="1022"/>
      <point x="436" y="1102"/>
      <point x="537" y="1102" type="qcurve" smooth="yes"/>
      <point x="622" y="1102"/>
      <point x="751" y="1041"/>
      <point x="801" y="985" type="qcurve"/>
      <point x="801" y="1536" type="line"/>
      <point x="1080" y="1536" type="line"/>
      <point x="1080" y="0" type="line"/>
      <point x="829" y="0" type="line"/>
      <point x="815" y="113" type="line"/>
      <point x="764" y="50"/>
      <point x="626" y="-20"/>
      <point x="535" y="-20" type="qcurve" smooth="yes"/>
      <point x="436" y="-20"/>
      <point x="279" y="63"/>
      <point x="224.5" y="136.0" type="qcurve" smooth="yes" name="inserted"/>
      <point x="170" y="209"/>
      <point x="112" y="410"/>
      <point x="112" y="528" type="qcurve" smooth="yes"/>
    </contour>
    <contour>
      <point x="390" y="528" type="line" smooth="yes"/>
      <point x="390" y="460"/>
      <point x="413" y="343"/>
      <point x="439.0" y="299.5" type="qcurve" smooth="yes" name="inserted"/>
      <point x="465" y="256"/>
      <point x="547" y="206"/>
      <point x="606" y="206" type="qcurve" smooth="yes"/>
      <point x="678" y="206"/>
      <point x="773" y="268"/>
      <point x="801" y="322" type="qcurve"/>
      <point x="801" y="760" type="line"/>
      <point x="773" y="815"/>
      <point x="679" y="876"/>
      <point x="608" y="876" type="qcurve" smooth="yes"/>
      <point x="549" y="876"/>
      <point x="466" y="825"/>
      <point x="440.0" y="780.5" type="qcurve" smooth="yes" name="inserted"/>
      <point x="414" y="736"/>
      <point x="390" y="617"/>
      <point x="390" y="549" type="qcurve" smooth="yes"/>
    </contour>
  </outline>
</glyph>
<glyph name="j" format="2">
  <advance width="1229"/>
  <unicode hex="006A"/>
  <outline>
    <contour>
      <point x="307" y="1082" type="line"/>
      <point x="861" y="1082" type="line"/>
      <point x="861" y="-25" type="line" smooth="yes"/>
      <point x="861" y="-133"/>
      <point x="799" y="-288"/>
      <point x="740" y="-338" type="qcurve" smooth="yes" name="inserted"/>
      <point x="681" y="-389"/>
      <point x="511" y="-437"/>
      <point x="402" y="-437" type="qcurve" smooth="yes"/>
      <point x="376" y="-437"/>
      <point x="323" y="-435"/>
      <point x="297" y="-432" type="qcurve" smooth="yes"/>
      <point x="278" y="-430"/>
      <point x="241" y="-424"/>
      <point x="223" y="-420" type="qcurve"/>
      <point x="237" y="-194" type="line"/>
      <point x="249" y="-197"/>
      <point x="292" y="-202"/>
      <point x="315" y="-203" type="qcurve" smooth="yes" name="inserted"/>
      <point x="337" y="-205"/>
      <point x="378" y="-206"/>
      <point x="388" y="-206" type="qcurve" smooth="yes"/>
      <point x="428" y="-206"/>
      <point x="499" y="-188"/>
      <point x="525" y="-167" type="qcurve" smooth="yes" name="inserted"/>
      <point x="550" y="-146"/>
      <point x="580" y="-77"/>
      <point x="580" y="-25" type="qcurve" smooth="yes"/>
      <point x="580" y="855" type="line"/>
      <point x="307" y="855" type="line"/>
    </contour>
    <contour>
      <point x="561" y="1359" type="qcurve" smooth="yes"/>
      <point x="561.0" y="1421.439976218778"/>
      <point x="646.1550295663716" y="1507.0"/>
      <point x="720" y="1507" type="qcurve" smooth="yes"/>
      <point x="794" y="1507"/>
      <point x="881" y="1424"/>
      <point x="881" y="1359" type="qcurve" smooth="yes"/>
      <point x="881" y="1294"/>
      <point x="794" y="1211"/>
      <point x="720" y="1211" type="qcurve" smooth="yes"/>
      <point x="647.9550280898985" y="1211.0"/>
      <point x="561.0" y="1295.0399251559088"/>
    </contour>
  </outline>
</glyph>
<glyph name="o" format="2">
  <advance width="1229"/>
  <unicode hex="006F"/>
  <outline>
    <contour>
      <point x="103" y="551" type="line" smooth="yes"/>
      <point x="103" y="669"/>
      <point x="171" y="870"/>
      <point x="236.5" y="944.0" type="qcurve" smooth="yes" name="inserted"/>
      <point x="302" y="1018"/>
      <point x="491" y="1102"/>
      <point x="613" y="1102" type="qcurve" smooth="yes"/>
      <point x="735" y="1102"/>
      <point x="925" y="1018"/>
      <point x="990.5" y="944.0" type="qcurve" smooth="yes" name="inserted"/>
      <point x="1056" y="870"/>
      <point x="1124" y="669"/>
      <point x="1124" y="551" type="qcurve" smooth="yes"/>
      <point x="1124" y="530" type="line" smooth="yes"/>
      <point x="1124" y="411"/>
      <point x="1056" y="210"/>
      <point x="991.0" y="136.0" type="qcurve" smooth="yes" name="inserted"/>
      <point x="926" y="62"/>
      <point x="736" y="-21"/>
      <point x="615" y="-21" type="qcurve" smooth="yes"/>
      <point x="493" y="-21"/>
      <point x="302" y="62"/>
      <point x="236.5" y="136.0" type="qcurve" smooth="yes" name="inserted"/>
      <point x="171" y="210"/>
      <point x="103" y="411"/>
      <point x="103" y="530" type="qcurve" smooth="yes"/>
    </contour>
    <contour>
      <point x="381" y="530" type="line" smooth="yes"/>
      <point x="381" y="462"/>
      <point x="407" y="343"/>
      <point x="435.0" y="298.5" type="qcurve" smooth="yes" name="inserted"/>
      <point x="463" y="254"/>
      <point x="552" y="202"/>
      <point x="615" y="202" type="qcurve" smooth="yes"/>
      <point x="676" y="202"/>
      <point x="764" y="254"/>
      <point x="791.5" y="298.5" type="qcurve" smooth="yes" name="inserted"/>
      <point x="819" y="343"/>
      <point x="845" y="462"/>
      <point x="845" y="530" type="qcurve" smooth="yes"/>
      <point x="845" y="551" type="line" smooth="yes"/>
      <point x="845" y="617"/>
      <point x="819" y="735"/>
      <point x="791.5" y="780.0" type="qcurve" smooth="yes" name="inserted"/>
      <point x="764" y="825"/>
      <point x="676" y="877"/>
      <point x="613" y="877" type="qcurve" smooth="yes"/>
      <point x="551" y="877"/>
      <point x="463" y="825"/>
      <point x="435.0" y="780.0" type="qcurve" smooth="yes" name="inserted"/>
      <point x="407" y="735"/>
      <point x="381" y="617"/>
      <point x="381" y="551" type="qcurve" smooth="yes"/>
    </contour>
  </outline>
</glyph>
<glyph name="p" format="2">
  <advance width="1229"/>
  <unicode hex="0070"/>
  <outline>
    <contour>
      <point x="145" y="-416" type="line"/>
      <point x="145" y="1082" type="line"/>
      <point x="402" y="1082" type="line"/>
      <point x="412" y="976" type="line"/>
      <point x="434" y="1003"/>
      <point x="486" y="1046"/>
      <point x="516" y="1062" type="qcurve" smooth="yes"/>
      <point x="552" y="1081"/>
      <point x="639" y="1102"/>
      <point x="689" y="1102" type="qcurve" smooth="yes"/>
      <point x="792" y="1102"/>
      <point x="950" y="1023"/>
      <point x="1004" y="951" type="qcurve" smooth="yes" name="inserted"/>
      <point x="1058" y="878"/>
      <point x="1113" y="675"/>
      <point x="1113" y="552" type="qcurve" smooth="yes"/>
      <point x="1113" y="531" type="line" smooth="yes"/>
      <point x="1113" y="413"/>
      <point x="1058" y="211"/>
      <point x="1005" y="138" type="qcurve" smooth="yes" name="inserted"/>
      <point x="951" y="64"/>
      <point x="793" y="-20"/>
      <point x="691" y="-20" type="qcurve" smooth="yes"/>
      <point x="637" y="-20"/>
      <point x="546" y="3"/>
      <point x="507" y="25" type="qcurve" smooth="yes"/>
      <point x="484" y="39"/>
      <point x="442" y="73"/>
      <point x="423" y="94" type="qcurve"/>
      <point x="423" y="-416" type="line"/>
    </contour>
    <contour>
      <point x="835" y="552" type="line" smooth="yes"/>
      <point x="835" y="620"/>
      <point x="810" y="739"/>
      <point x="784" y="783" type="qcurve" smooth="yes" name="inserted"/>
      <point x="757" y="826"/>
      <point x="674" y="876"/>
      <point x="615" y="876" type="qcurve" smooth="yes"/>
      <point x="581" y="876"/>
      <point x="525" y="863"/>
      <point x="502" y="851" type="qcurve" smooth="yes"/>
      <point x="476" y="837"/>
      <point x="437" y="795"/>
      <point x="423" y="767" type="qcurve"/>
      <point x="423" y="315" type="line"/>
      <point x="436" y="289"/>
      <point x="473" y="247"/>
      <point x="497" y="232" type="qcurve" smooth="yes"/>
      <point x="520" y="218"/>
      <point x="580" y="203"/>
      <point x="617" y="203" type="qcurve" smooth="yes"/>
      <point x="676" y="203"/>
      <point x="759" y="255"/>
      <point x="785" y="300" type="qcurve" smooth="yes" name="inserted"/>
      <point x="811" y="345"/>
      <point x="835" y="464"/>
      <point x="835" y="531" type="qcurve" smooth="yes"/>
    </contour>
  </outline>
</glyph>
<glyph name="t" format="2">
  <advance width="1229"/>
  <unicode hex="0074"/>
  <outline>
    <contour>
      <point x="651" y="1347" type="line"/>
      <point x="651" y="1082" type="line"/>
      <point x="1055" y="1082" type="line"/>
      <point x="1055" y="877" type="line"/>
      <point x="651" y="877" type="line"/>
      <point x="651" y="412" type="line" smooth="yes"/>
      <point x="651" y="353"/>
      <point x="678" y="274"/>
      <point x="703.0" y="250.5" type="qcurve" smooth="yes" name="inserted"/>
      <point x="728" y="227"/>
      <point x="799" y="207"/>
      <point x="843" y="207" type="qcurve" smooth="yes"/>
      <point x="875" y="207"/>
      <point x="942" y="213"/>
      <point x="972.5" y="217.5" type="qcurve" smooth="yes" name="inserted"/>
      <point x="1003" y="222"/>
      <point x="1056" y="232"/>
      <point x="1075" y="237" type="qcurve"/>
      <point x="1102" y="46" type="line"/>
      <point x="1073" y="29"/>
      <point x="995" y="4"/>
      <point x="951.0" y="-4.0" type="qcurve" smooth="yes" name="inserted"/>
      <point x="907" y="-12"/>
      <point x="812" y="-21"/>
      <point x="766" y="-21" type="qcurve" smooth="yes"/>
      <point x="677" y="-21"/>
      <point x="532" y="26"/>
      <point x="480.5" y="75.5" type="qcurve" smooth="yes" name="inserted"/>
      <point x="429" y="125"/>
      <point x="373" y="278"/>
      <point x="373" y="385" type="qcurve" smooth="yes"/>
      <point x="373" y="877" type="line"/>
      <point x="126" y="877" type="line"/>
      <point x="126" y="1082" type="line"/>
      <point x="373" y="1082" type="line"/>
      <point x="373" y="1347" type="line"/>
    </contour>
  </outline>
</glyph>
<glyph name="z" format="2">
  <advance width="1229"/>
  <unicode hex="007A"/>
  <outline>
    <contour>
      <point x="498" y="223" type="line"/>
      <point x="1135" y="223" type="line"/>
      <point x="1135" y="0" type="line"/>
      <point x="118" y="0" type="line"/>
      <point x="118" y="172" type="line"/>
      <point x="724" y="856" type="line"/>
      <point x="132" y="856" type="line"/>
      <point x="132" y="1082" type="line"/>
      <point x="1110" y="1082" type="line"/>
      <point x="1110" y="915" type="line"/>
    </contour>
  </outline>
</glyph>
<glyph name="braceleft" format="2">
  <advance width="1229"/>
  <unicode hex="007B"/>
  <outline>
    <contour>
      <point x="940" y="-360" type="line"/>
      <point x="841.0" y="-360.0"/>
      <point x="696.0" y="-273.0"/>
      <point x="651" y="-207" type="qcurve" smooth="yes"/>
      <point x="602.7893531080811" y="-137.69719509286676"/>
      <point x="560.0" y="26.67330116512649"/>
      <point x="560" y="106" type="qcurve" smooth="yes"/>
      <point x="560" y="269" type="line" smooth="yes"/>
      <point x="560" y="402"/>
      <point x="436" y="518"/>
      <point x="309" y="518" type="qcurve"/>
      <point x="309" y="718" type="line"/>
      <point x="436" y="718"/>
      <point x="560" y="834"/>
      <point x="560" y="969" type="qcurve" smooth="yes"/>
      <point x="560" y="1132" type="line" smooth="yes"/>
      <point x="560" y="1217"/>
      <point x="608" y="1398"/>
      <point x="660" y="1465" type="qcurve" smooth="yes"/>
      <point x="703" y="1523"/>
      <point x="843" y="1597"/>
      <point x="940" y="1597" type="qcurve"/>
      <point x="974" y="1440" type="line"/>
      <point x="913" y="1442"/>
      <point x="847" y="1387"/>
      <point x="832" y="1342" type="qcurve" smooth="yes" name="inserted"/>
      <point x="817" y="1297"/>
      <point x="812" y="1186"/>
      <point x="812" y="1132" type="qcurve" smooth="yes"/>
      <point x="812" y="969" type="line" smooth="yes"/>
      <point x="812" y="850"/>
      <point x="695" y="666"/>
      <point x="572" y="618" type="qcurve"/>
      <point x="696" y="570"/>
      <point x="812" y="388"/>
      <point x="812" y="269" type="qcurve" smooth="yes"/>
      <point x="812" y="106" type="line" smooth="yes"/>
      <point x="812" y="52"/>
      <point x="825" y="-59"/>
      <point x="843" y="-104" type="qcurve" smooth="yes" name="inserted"/>
      <point x="861" y="-149"/>
      <point x="924" y="-204"/>
      <point x="974" y="-202" type="qcurve"/>
    </contour>
  </outline>
</glyph>
<glyph name="braceright" format="2">
  <advance width="1229"/>
  <unicode hex="007D"/>
  <outline>
    <contour>
      <point x="332" y="-202" type="line"/>
      <point x="381" y="-204"/>
      <point x="444" y="-149"/>
      <point x="462" y="-104" type="qcurve" smooth="yes" name="inserted"/>
      <point x="480" y="-59"/>
      <point x="494" y="52"/>
      <point x="494" y="106" type="qcurve" smooth="yes"/>
      <point x="494" y="269" type="line" smooth="yes"/>
      <point x="494" y="327"/>
      <point x="521" y="431"/>
      <point x="549" y="476" type="qcurve" smooth="yes" name="inserted"/>
      <point x="577" y="521"/>
      <point x="662" y="592"/>
      <point x="721" y="617" type="qcurve"/>
      <point x="673" y="637"/>
      <point x="599" y="693"/>
      <point x="572" y="727" type="qcurve" smooth="yes"/>
      <point x="532" y="777"/>
      <point x="494" y="900"/>
      <point x="494" y="969" type="qcurve" smooth="yes"/>
      <point x="494" y="1132" type="line" smooth="yes"/>
      <point x="494" y="1186"/>
      <point x="489" y="1297"/>
      <point x="474" y="1342" type="qcurve" smooth="yes" name="inserted"/>
      <point x="459" y="1387"/>
      <point x="393" y="1442"/>
      <point x="332" y="1440" type="qcurve"/>
      <point x="366" y="1597" type="line"/>
      <point x="473" y="1597"/>
      <point x="619" y="1510"/>
      <point x="665" y="1437" type="qcurve" smooth="yes"/>
      <point x="709" y="1371"/>
      <point x="746" y="1208"/>
      <point x="746" y="1132" type="qcurve" smooth="yes"/>
      <point x="746" y="969" type="line" smooth="yes"/>
      <point x="746" y="913"/>
      <point x="767" y="827"/>
      <point x="789" y="797" type="qcurve" smooth="yes"/>
      <point x="818" y="756"/>
      <point x="923" y="718"/>
      <point x="997" y="718" type="qcurve"/>
      <point x="997" y="518" type="line"/>
      <point x="914" y="518"/>
      <point x="804" y="471"/>
      <point x="776" y="419" type="qcurve" smooth="yes"/>
      <point x="761" y="391"/>
      <point x="746" y="316"/>
      <point x="746" y="269" type="qcurve" smooth="yes"/>
      <point x="746" y="106" type="line" smooth="yes"/>
      <point x="746.0" y="28.0"/>
      <point x="700.0" y="-140.00000000000006"/>
      <point x="655" y="-206" type="qcurve" smooth="yes"/>
      <point x="610.0" y="-275.0"/>
      <point x="465.0" y="-360.0"/>
      <point x="366" y="-360" type="qcurve"/>
    </contour>
  </outline>
</glyph>
<glyph name="section" format="2">
  <advance width="1229"/>
  <unicode hex="00A7"/>
  <outline>
    <contour>
      <point x="1169" y="475" type="qcurve" smooth="yes"/>
      <point x="1169" y="410"/>
      <point x="1128" y="305"/>
      <point x="1089" y="265" type="qcurve" smooth="yes"/>
      <point x="1072" y="247"/>
      <point x="1031" y="216"/>
      <point x="1007" y="203" type="qcurve"/>
      <point x="1032" y="184"/>
      <point x="1073" y="141"/>
      <point x="1089" y="117" type="qcurve" smooth="yes"/>
      <point x="1115" y="77"/>
      <point x="1141" y="-22"/>
      <point x="1141" y="-84" type="qcurve" smooth="yes"/>
      <point x="1141" y="-174"/>
      <point x="1068" y="-313"/>
      <point x="1001" y="-360" type="qcurve" smooth="yes" name="inserted"/>
      <point x="934" y="-408"/>
      <point x="745" y="-457"/>
      <point x="628" y="-457" type="qcurve" smooth="yes"/>
      <point x="527" y="-457"/>
      <point x="332" y="-416"/>
      <point x="256" y="-367" type="qcurve" smooth="yes" name="inserted"/>
      <point x="179" y="-319"/>
      <point x="86" y="-158"/>
      <point x="86" y="-38" type="qcurve"/>
      <point x="364" y="-37" type="line"/>
      <point x="364" y="-96"/>
      <point x="410" y="-171"/>
      <point x="448" y="-193" type="qcurve" smooth="yes" name="inserted"/>
      <point x="485" y="-215"/>
      <point x="580" y="-232"/>
      <point x="628" y="-232" type="qcurve" smooth="yes"/>
      <point x="698" y="-232"/>
      <point x="799" y="-201"/>
      <point x="827" y="-174" type="qcurve" smooth="yes"/>
      <point x="845" y="-156"/>
      <point x="864" y="-111"/>
      <point x="864" y="-85" type="qcurve" smooth="yes"/>
      <point x="864" y="-52"/>
      <point x="836" y="0"/>
      <point x="802" y="23" type="qcurve" smooth="yes" name="inserted"/>
      <point x="779" y="37"/>
      <point x="715" y="65"/>
      <point x="672" y="80" type="qcurve" smooth="yes"/>
      <point x="619" y="99"/>
      <point x="476" y="137"/>
      <point x="418" y="158" type="qcurve" smooth="yes"/>
      <point x="357" y="180"/>
      <point x="255" y="231"/>
      <point x="216" y="263" type="qcurve" smooth="yes" name="inserted"/>
      <point x="154" y="312"/>
      <point x="89" y="444"/>
      <point x="89" y="535" type="qcurve" smooth="yes"/>
      <point x="89" y="595"/>
      <point x="126" y="695"/>
      <point x="160" y="735" type="qcurve" smooth="yes"/>
      <point x="179" y="756"/>
      <point x="225" y="793"/>
      <point x="252" y="808" type="qcurve"/>
      <point x="229" y="825"/>
      <point x="191" y="864"/>
      <point x="176" y="885" type="qcurve" smooth="yes"/>
      <point x="147" y="927"/>
      <point x="117" y="1030"/>
      <point x="117" y="1096" type="qcurve" smooth="yes"/>
      <point x="117" y="1182"/>
      <point x="190" y="1323"/>
      <point x="258" y="1373" type="qcurve" smooth="yes" name="inserted"/>
      <point x="325" y="1422"/>
      <point x="516" y="1476"/>
      <point x="633" y="1476" type="qcurve" smooth="yes"/>
      <point x="753" y="1476"/>
      <point x="945" y="1420"/>
      <point x="1012" y="1366" type="qcurve" smooth="yes" name="inserted"/>
      <point x="1078" y="1311"/>
      <point x="1150" y="1151"/>
      <point x="1150" y="1048" type="qcurve"/>
      <point x="871" y="1048" type="line"/>
      <point x="871" y="1091"/>
      <point x="841" y="1165"/>
      <point x="811" y="1193" type="qcurve" smooth="yes" name="inserted"/>
      <point x="781" y="1220"/>
      <point x="692" y="1252"/>
      <point x="633" y="1252" type="qcurve" smooth="yes"/>
      <point x="571" y="1252"/>
      <point x="481" y="1227"/>
      <point x="452" y="1206" type="qcurve" smooth="yes" name="inserted"/>
      <point x="423" y="1185"/>
      <point x="396" y="1129"/>
      <point x="396" y="1098" type="qcurve" smooth="yes"/>
      <point x="396" y="1060"/>
      <point x="421" y="1006"/>
      <point x="454" y="984" type="qcurve" smooth="yes" name="inserted"/>
      <point x="468" y="974"/>
      <point x="503" y="957"/>
      <point x="525" y="948" type="qcurve" smooth="yes"/>
      <point x="557" y="936"/>
      <point x="639" y="911"/>
      <point x="692" y="897" type="qcurve" smooth="yes"/>
      <point x="736" y="885"/>
      <point x="818" y="861"/>
      <point x="854" y="847" type="qcurve" smooth="yes"/>
      <point x="912" y="826"/>
      <point x="1008" y="777"/>
      <point x="1045" y="747" type="qcurve" smooth="yes" name="inserted"/>
      <point x="1106" y="698"/>
      <point x="1169" y="566"/>
    </contour>
    <contour>
      <point x="594" y="663" type="qcurve" smooth="yes"/>
      <point x="555" y="674" name="inserted"/>
      <point x="483" y="696"/>
      <point x="450" y="708" type="qcurve"/>
      <point x="430" y="699"/>
      <point x="401" y="672"/>
      <point x="390" y="656" type="qcurve" smooth="yes"/>
      <point x="378" y="636"/>
      <point x="366" y="588"/>
      <point x="366" y="561" type="qcurve" smooth="yes"/>
      <point x="366" y="521"/>
      <point x="391" y="464"/>
      <point x="424" y="440" type="qcurve" smooth="yes" name="inserted"/>
      <point x="457" y="416"/>
      <point x="572" y="373"/>
      <point x="662" y="346" type="qcurve" smooth="yes"/>
      <point x="701" y="335"/>
      <point x="773" y="314"/>
      <point x="807" y="302" type="qcurve"/>
      <point x="824" y="311"/>
      <point x="853" y="335"/>
      <point x="864" y="349" type="qcurve" smooth="yes"/>
      <point x="879" y="370"/>
      <point x="896" y="420"/>
      <point x="896" y="449" type="qcurve" smooth="yes"/>
      <point x="896" y="485"/>
      <point x="867" y="541"/>
      <point x="832" y="566" type="qcurve" smooth="yes" name="inserted"/>
      <point x="814" y="579"/>
      <point x="767" y="603"/>
      <point x="738" y="615" type="qcurve" smooth="yes"/>
      <point x="709" y="626"/>
      <point x="637" y="650"/>
    </contour>
  </outline>
</glyph>
<glyph name="plusminus" format="2">
  <advance width="1229"/>
  <unicode hex="00B1"/>
  <outline>
    <contour>
      <point x="732" y="933" type="line"/>
      <point x="1063" y="933" type="line"/>
      <point x="1063" y="701" type="line"/>
      <point x="732" y="701" type="line"/>
      <point x="732" y="331" type="line"/>
      <point x="487" y="331" type="line"/>
      <point x="487" y="701" type="line"/>
      <point x="147" y="701" type="line"/>
      <point x="147" y="933" type="line"/>
      <point x="487" y="933" type="line"/>
      <point x="487" y="1284" type="line"/>
      <point x="732" y="1284" type="line"/>
    </contour>
    <contour>
      <point x="1031" y="0" type="line"/>
      <point x="171" y="0" type="line"/>
      <point x="171" y="227" type="line"/>
      <point x="1031" y="227" type="line"/>
    </contour>
  </outline>
</glyph>
<glyph name="acute" format="2">
  <advance width="1229"/>
  <unicode hex="00B4"/>
  <outline>
    <contour>
      <point x="569" y="1478" type="line"/>
      <point x="875" y="1478" type="line"/>
      <point x="598" y="1199" type="line"/>
      <point x="382" y="1199" type="line"/>
    </contour>
  </outline>
</glyph>
<glyph name="ae" format="2">
  <advance width="1229"/>
  <unicode hex="00E6"/>
  <outline>
    <contour>
      <point x="868" y="-20" type="qcurve" smooth="yes"/>
      <point x="814" y="-20"/>
      <point x="723" y="2"/>
      <point x="685" y="24" type="qcurve" smooth="yes"/>
      <point x="660" y="38"/>
      <point x="616" y="76"/>
      <point x="598" y="99" type="qcurve"/>
      <point x="580" y="75"/>
      <point x="533" y="31"/>
      <point x="504" y="15" type="qcurve" smooth="yes" name="inserted"/>
      <point x="474" y="-1"/>
      <point x="405" y="-20"/>
      <point x="364" y="-20" type="qcurve" smooth="yes"/>
      <point x="287" y="-20"/>
      <point x="169" y="25"/>
      <point x="129" y="66" type="qcurve" smooth="yes" name="inserted"/>
      <point x="88" y="107"/>
      <point x="46" y="225"/>
      <point x="46" y="297" type="qcurve" smooth="yes"/>
      <point x="46" y="370"/>
      <point x="89" y="489"/>
      <point x="131" y="532" type="qcurve" smooth="yes"/>
      <point x="187" y="589"/>
      <point x="371" y="648"/>
      <point x="497" y="648" type="qcurve" smooth="yes"/>
      <point x="500" y="648" type="line"/>
      <point x="500" y="767" type="line" smooth="yes"/>
      <point x="500" y="799"/>
      <point x="487" y="845"/>
      <point x="474" y="858" type="qcurve" smooth="yes"/>
      <point x="464" y="868"/>
      <point x="439" y="877"/>
      <point x="422" y="877" type="qcurve" smooth="yes"/>
      <point x="396" y="877"/>
      <point x="358" y="863"/>
      <point x="347" y="847" type="qcurve" smooth="yes"/>
      <point x="338" y="835"/>
      <point x="330" y="800"/>
      <point x="330" y="776" type="qcurve"/>
      <point x="69" y="785" type="line"/>
      <point x="69" y="857"/>
      <point x="116" y="975"/>
      <point x="160" y="1016" type="qcurve" smooth="yes" name="inserted"/>
      <point x="204" y="1057"/>
      <point x="329" y="1102"/>
      <point x="408" y="1102" type="qcurve" smooth="yes"/>
      <point x="453" y="1102"/>
      <point x="532" y="1088"/>
      <point x="565" y="1074" type="qcurve" smooth="yes"/>
      <point x="586" y="1065"/>
      <point x="623" y="1042"/>
      <point x="640" y="1027" type="qcurve"/>
      <point x="657" y="1042"/>
      <point x="697" y="1067"/>
      <point x="720" y="1076" type="qcurve" smooth="yes"/>
      <point x="751" y="1089"/>
      <point x="825" y="1103"/>
      <point x="867" y="1102" type="qcurve" smooth="yes"/>
      <point x="941" y="1102"/>
      <point x="1062" y="1046"/>
      <point x="1105" y="994" type="qcurve" smooth="yes" name="inserted"/>
      <point x="1147" y="942"/>
      <point x="1194" y="792"/>
      <point x="1194" y="699" type="qcurve" smooth="yes"/>
      <point x="1194" y="454" type="line"/>
      <point x="743" y="454" type="line"/>
      <point x="743" y="363" type="line" smooth="yes"/>
      <point x="743" y="341"/>
      <point x="750" y="301"/>
      <point x="757" y="284" type="qcurve" smooth="yes"/>
      <point x="766.3750000000001" y="265.25000000000006"/>
      <point x="793.5714285714286" y="233.71428571428572"/>
      <point x="815" y="223" type="qcurve" smooth="yes"/>
      <point x="834" y="213"/>
      <point x="885" y="203"/>
      <point x="917" y="203" type="qcurve" smooth="yes"/>
      <point x="951" y="203"/>
      <point x="1005" y="212"/>
      <point x="1028" y="219" type="qcurve" smooth="yes" name="inserted"/>
      <point x="1050" y="225"/>
      <point x="1090" y="243"/>
      <point x="1111" y="252" type="qcurve"/>
      <point x="1166" y="60" type="line"/>
      <point x="1146" y="44"/>
      <point x="1085" y="15"/>
      <point x="1047" y="4" type="qcurve" smooth="yes" name="inserted"/>
      <point x="1008" y="-7"/>
      <point x="918" y="-20"/>
    </contour>
    <contour>
      <point x="434" y="185" type="qcurve" smooth="yes"/>
      <point x="444" y="185"/>
      <point x="467" y="191"/>
      <point x="477" y="196" type="qcurve" smooth="yes"/>
      <point x="484" y="199"/>
      <point x="496" y="209"/>
      <point x="500" y="214" type="qcurve"/>
      <point x="500" y="262"/>
      <point x="500" y="316"/>
      <point x="500" y="352" type="qcurve" smooth="yes"/>
      <point x="500" y="379"/>
      <point x="500" y="429"/>
      <point x="500" y="464" type="qcurve"/>
      <point x="499" y="464" type="line" smooth="yes"/>
      <point x="456" y="464"/>
      <point x="391" y="436"/>
      <point x="369" y="413" type="qcurve" smooth="yes" name="inserted"/>
      <point x="346" y="389"/>
      <point x="323" y="327"/>
      <point x="323" y="293" type="qcurve" smooth="yes"/>
      <point x="323" y="269"/>
      <point x="336" y="230"/>
      <point x="349" y="216" type="qcurve" smooth="yes"/>
      <point x="362" y="201"/>
      <point x="405" y="185"/>
    </contour>
    <contour>
      <point x="938" y="643" type="line"/>
      <point x="938" y="755" type="line" smooth="yes"/>
      <point x="938" y="784"/>
      <point x="927" y="830"/>
      <point x="916" y="846" type="qcurve" smooth="yes"/>
      <point x="905" y="861"/>
      <point x="871" y="877"/>
      <point x="847" y="877" type="qcurve" smooth="yes"/>
      <point x="827" y="877"/>
      <point x="797" y="868"/>
      <point x="786" y="860" type="qcurve" smooth="yes"/>
      <point x="770" y="848"/>
      <point x="752" y="807"/>
      <point x="748" y="781" type="qcurve" smooth="yes"/>
      <point x="745" y="764"/>
      <point x="743" y="725"/>
      <point x="743" y="704" type="qcurve" smooth="yes"/>
      <point x="743" y="643" type="line"/>
    </contour>
  </outline>
</glyph>
<glyph name="aogonek" format="2">
  <advance width="1229"/>
  <unicode hex="0105"/>
  <outline>
    <contour>
      <point x="812" y="10" type="qcurve"/>
      <point x="804" y="29"/>
      <point x="793" y="75"/>
      <point x="788" y="101" type="qcurve"/>
      <point x="765" y="76"/>
      <point x="705" y="32"/>
      <point x="669" y="16" type="qcurve" smooth="yes" name="inserted"/>
      <point x="632" y="-1"/>
      <point x="544" y="-20"/>
      <point x="493" y="-20" type="qcurve" smooth="yes"/>
      <point x="410" y="-20"/>
      <point x="271" y="28"/>
      <point x="221" y="71" type="qcurve" smooth="yes" name="inserted"/>
      <point x="171" y="114"/>
      <point x="115" y="233"/>
      <point x="115" y="303" type="qcurve" smooth="yes"/>
      <point x="115" y="397"/>
      <point x="193" y="541"/>
      <point x="269" y="586" type="qcurve" smooth="yes"/>
      <point x="332" y="623"/>
      <point x="510" y="661"/>
      <point x="623" y="661" type="qcurve" smooth="yes"/>
      <point x="778" y="661" type="line"/>
      <point x="778" y="725" type="line" smooth="yes"/>
      <point x="778" y="760"/>
      <point x="757" y="818"/>
      <point x="737" y="839" type="qcurve" smooth="yes"/>
      <point x="712" y="865"/>
      <point x="633" y="894"/>
      <point x="580" y="894" type="qcurve" smooth="yes"/>
      <point x="541" y="894"/>
      <point x="483" y="878"/>
      <point x="463" y="864" type="qcurve" smooth="yes"/>
      <point x="440" y="846"/>
      <point x="417" y="793"/>
      <point x="417" y="760" type="qcurve"/>
      <point x="139" y="760" type="line"/>
      <point x="139" y="829"/>
      <point x="200" y="953"/>
      <point x="259" y="1000" type="qcurve" smooth="yes" name="inserted"/>
      <point x="317" y="1047"/>
      <point x="486" y="1102"/>
      <point x="595" y="1102" type="qcurve" smooth="yes"/>
      <point x="693" y="1102"/>
      <point x="862" y="1054"/>
      <point x="924" y="1007" type="qcurve" smooth="yes" name="inserted"/>
      <point x="986" y="960"/>
      <point x="1056" y="817"/>
      <point x="1056" y="723" type="qcurve" smooth="yes"/>
      <point x="1056" y="259" type="line" smooth="yes"/>
      <point x="1056" y="172"/>
      <point x="1078" y="58"/>
      <point x="1099" y="17" type="qcurve"/>
      <point x="1099" y="0" type="line"/>
      <point x="1048" y="0" type="line"/>
      <point x="1003" y="-18"/>
      <point x="943" y="-58"/>
      <point x="925" y="-80" type="qcurve" smooth="yes" name="inserted"/>
      <point x="907" y="-102"/>
      <point x="892" y="-151"/>
      <point x="892" y="-178" type="qcurve" smooth="yes"/>
      <point x="892" y="-207"/>
      <point x="922" y="-246"/>
      <point x="959" y="-246" type="qcurve" smooth="yes"/>
      <point x="988" y="-246"/>
      <point x="1028" y="-232"/>
      <point x="1042" y="-226" type="qcurve"/>
      <point x="1089" y="-380" type="line"/>
      <point x="1061" y="-395"/>
      <point x="972" y="-424"/>
      <point x="903" y="-424" type="qcurve" smooth="yes"/>
      <point x="857" y="-424"/>
      <point x="776" y="-397"/>
      <point x="746" y="-371" type="qcurve" smooth="yes" name="inserted"/>
      <point x="716" y="-345"/>
      <point x="681" y="-268"/>
      <point x="681" y="-217" type="qcurve" smooth="yes"/>
      <point x="681" y="-183"/>
      <point x="702" y="-116"/>
      <point x="722" y="-84" type="qcurve" smooth="yes"/>
      <point x="738" y="-59"/>
      <point x="783" y="-11"/>
    </contour>
    <contour>
      <point x="552" y="195" type="qcurve" smooth="yes"/>
      <point x="594" y="195"/>
      <point x="666" y="215"/>
      <point x="695" y="231" type="qcurve" smooth="yes" name="inserted"/>
      <point x="724" y="247"/>
      <point x="766" y="288"/>
      <point x="778" y="309" type="qcurve"/>
      <point x="778" y="495" type="line"/>
      <point x="636" y="495" type="line" smooth="yes"/>
      <point x="571" y="495"/>
      <point x="479" y="470"/>
      <point x="450" y="448" type="qcurve" smooth="yes" name="inserted"/>
      <point x="421" y="425"/>
      <point x="393" y="362"/>
      <point x="393" y="325" type="qcurve" smooth="yes"/>
      <point x="393" y="300"/>
      <point x="409" y="255"/>
      <point x="425" y="238" type="qcurve" smooth="yes"/>
      <point x="445" y="218"/>
      <point x="508" y="195"/>
    </contour>
  </outline>
</glyph>
<glyph name="iogonek" format="2">
  <advance width="1229"/>
  <unicode hex="012F"/>
  <outline>
    <contour>
      <point x="215" y="1082" type="line"/>
      <point x="804" y="1082" type="line"/>
      <point x="804" y="226" type="line"/>
      <point x="1097" y="226" type="line"/>
      <point x="1097" y="0" type="line"/>
      <point x="764" y="0" type="line"/>
      <point x="719" y="-18"/>
      <point x="659" y="-58"/>
      <point x="641" y="-80" type="qcurve" smooth="yes" name="inserted"/>
      <point x="623" y="-102"/>
      <point x="608" y="-151"/>
      <point x="608" y="-178" type="qcurve" smooth="yes"/>
      <point x="608" y="-207"/>
      <point x="638" y="-246"/>
      <point x="675" y="-246" type="qcurve" smooth="yes"/>
      <point x="704" y="-246"/>
      <point x="744" y="-232"/>
      <point x="758" y="-226" type="qcurve"/>
      <point x="805" y="-380" type="line"/>
      <point x="777" y="-395"/>
      <point x="688" y="-424"/>
      <point x="619" y="-424" type="qcurve" smooth="yes"/>
      <point x="573" y="-424"/>
      <point x="492" y="-397"/>
      <point x="462" y="-371" type="qcurve" smooth="yes" name="inserted"/>
      <point x="432" y="-345"/>
      <point x="397" y="-268"/>
      <point x="397" y="-217" type="qcurve" smooth="yes"/>
      <point x="397" y="-183"/>
      <point x="418" y="-114"/>
      <point x="440" y="-82" type="qcurve" smooth="yes"/>
      <point x="454" y="-60"/>
      <point x="491" y="-19"/>
      <point x="514" y="0" type="qcurve"/>
      <point x="215" y="0" type="line"/>
      <point x="215" y="226" type="line"/>
      <point x="523" y="226" type="line"/>
      <point x="523" y="855" type="line"/>
      <point x="215" y="855" type="line"/>
    </contour>
    <contour>
      <point x="503" y="1359" type="qcurve" smooth="yes"/>
      <point x="503.0" y="1422.2492187773935"/>
      <point x="590.1350784092755" y="1507.0"/>
      <point x="663" y="1507" type="qcurve" smooth="yes"/>
      <point x="737" y="1507"/>
      <point x="824" y="1424"/>
      <point x="824" y="1359" type="qcurve" smooth="yes"/>
      <point x="824" y="1294"/>
      <point x="737" y="1211"/>
      <point x="663" y="1211" type="qcurve" smooth="yes"/>
      <point x="591.8446288754326" y="1211.0"/>
      <point x="503.0" y="1294.2311808082447"/>
    </contour>
  </outline>
</glyph>
<glyph name="kgreenlandic" format="2">
  <advance width="1229"/>
  <unicode hex="0138"/>
  <outline>
    <contour>
      <point x="604" y="427" type="line"/>
      <point x="437" y="286" type="line"/>
      <point x="437" y="0" type="line"/>
      <point x="159" y="0" type="line"/>
      <point x="159" y="1082" type="line"/>
      <point x="437" y="1082" type="line"/>
      <point x="437" y="608" type="line"/>
      <point x="544" y="735" type="line"/>
      <point x="839" y="1082" type="line"/>
      <point x="1188" y="1082" type="line"/>
      <point x="802" y="634" type="line"/>
      <point x="1207" y="0" type="line"/>
      <point x="851" y="0" type="line"/>
    </contour>
  </outline>
</glyph>
<glyph name="lslash" format="2">
  <advance width="1229"/>
  <unicode hex="0142"/>
  <outline>
    <contour>
      <point x="818" y="1019" type="line"/>
      <point x="1099" y="1144" type="line"/>
      <point x="1099" y="949" type="line"/>
      <point x="818" y="824" type="line"/>
      <point x="818" y="226" type="line"/>
      <point x="1128" y="226" type="line"/>
      <point x="1128" y="0" type="line"/>
      <point x="213" y="0" type="line"/>
      <point x="213" y="226" type="line"/>
      <point x="537" y="226" type="line"/>
      <point x="537" y="700" type="line"/>
      <point x="225" y="562" type="line"/>
      <point x="225" y="757" type="line"/>
      <point x="537" y="895" type="line"/>
      <point x="537" y="1309" type="line"/>
      <point x="213" y="1309" type="line"/>
      <point x="213" y="1536" type="line"/>
      <point x="818" y="1536" type="line"/>
    </contour>
  </outline>
</glyph>
<glyph name="Uogonek" format="2">
  <advance width="1229"/>
  <unicode hex="0172"/>
  <outline>
    <contour>
      <point x="1101" y="1456" type="line"/>
      <point x="1102" y="491" type="line" smooth="yes"/>
      <point x="1102" y="393"/>
      <point x="1059" y="231"/>
      <point x="1018" y="170" type="qcurve" smooth="yes"/>
      <point x="984" y="118"/>
      <point x="886" y="41"/>
      <point x="825" y="17" type="qcurve"/>
      <point x="807" y="4"/>
      <point x="781" y="-25"/>
      <point x="773" y="-40" type="qcurve" smooth="yes"/>
      <point x="765" y="-57"/>
      <point x="757" y="-93"/>
      <point x="757" y="-113" type="qcurve" smooth="yes"/>
      <point x="757" y="-142"/>
      <point x="787" y="-181"/>
      <point x="824" y="-181" type="qcurve" smooth="yes"/>
      <point x="853" y="-181"/>
      <point x="893" y="-167"/>
      <point x="907" y="-161" type="qcurve"/>
      <point x="954" y="-315" type="line"/>
      <point x="926" y="-330"/>
      <point x="837" y="-359"/>
      <point x="768" y="-359" type="qcurve" smooth="yes"/>
      <point x="722" y="-359"/>
      <point x="641" y="-332"/>
      <point x="611" y="-306" type="qcurve" smooth="yes" name="inserted"/>
      <point x="581" y="-280"/>
      <point x="546" y="-203"/>
      <point x="546" y="-152" type="qcurve" smooth="yes"/>
      <point x="546" y="-133"/>
      <point x="553" y="-96"/>
      <point x="559" y="-77" type="qcurve" smooth="yes"/>
      <point x="564" y="-63"/>
      <point x="578" y="-33"/>
      <point x="587" y="-19" type="qcurve"/>
      <point x="584" y="-19"/>
      <point x="578" y="-19"/>
      <point x="576" y="-19" type="qcurve" smooth="yes"/>
      <point x="475" y="-14"/>
      <point x="310" y="57"/>
      <point x="252" y="120" type="qcurve" smooth="yes" name="inserted"/>
      <point x="192" y="185"/>
      <point x="126" y="372"/>
      <point x="126" y="491" type="qcurve" smooth="yes"/>
      <point x="127" y="1456" type="line"/>
      <point x="408" y="1456" type="line"/>
      <point x="409" y="491" type="line" smooth="yes"/>
      <point x="409" y="422"/>
      <point x="435" y="315"/>
      <point x="459" y="280" type="qcurve" smooth="yes"/>
      <point x="484" y="243"/>
      <point x="559" y="206"/>
      <point x="608" y="206" type="qcurve" smooth="yes"/>
      <point x="660" y="206"/>
      <point x="740" y="243"/>
      <point x="767" y="279" type="qcurve" smooth="yes"/>
      <point x="793" y="315"/>
      <point x="821" y="421"/>
      <point x="821" y="491" type="qcurve" smooth="yes"/>
      <point x="822" y="1456" type="line"/>
    </contour>
  </outline>
</glyph>
<glyph name="Ohorn" format="2">
  <advance width="1229"/>
  <unicode hex="01A0"/>
  <outline>
    <contour>
      <point x="1160" y="621" type="line" smooth="yes"/>
      <point x="1160" y="481"/>
      <point x="1086" y="245"/>
      <point x="1016" y="160" type="qcurve" smooth="yes" name="inserted"/>
      <point x="946" y="75"/>
      <point x="745" y="-20"/>
      <point x="619" y="-20" type="qcurve" smooth="yes"/>
      <point x="493" y="-20"/>
      <point x="297" y="75"/>
      <point x="230" y="161" type="qcurve" smooth="yes" name="inserted"/>
      <point x="163" y="246"/>
      <point x="93" y="481"/>
      <point x="93" y="621" type="qcurve" smooth="yes"/>
      <point x="93" y="833" type="line" smooth="yes"/>
      <point x="93" y="973"/>
      <point x="163" y="1209"/>
      <point x="230" y="1295" type="qcurve" smooth="yes" name="inserted"/>
      <point x="297" y="1380"/>
      <point x="492" y="1476"/>
      <point x="618" y="1476" type="qcurve" smooth="yes"/>
      <point x="686" y="1476"/>
      <point x="807" y="1448"/>
      <point x="859" y="1422" type="qcurve" smooth="yes"/>
      <point x="900" y="1401"/>
      <point x="973" y="1343"/>
      <point x="1004" y="1308" type="qcurve"/>
      <point x="1017" y="1321"/>
      <point x="1036" y="1359"/>
      <point x="1042" y="1383" type="qcurve" smooth="yes"/>
      <point x="1048" y="1408"/>
      <point x="1054" y="1468"/>
      <point x="1054" y="1503" type="qcurve"/>
      <point x="1248" y="1503" type="line"/>
      <point x="1248" y="1442"/>
      <point x="1229" y="1339"/>
      <point x="1211" y="1297" type="qcurve" smooth="yes"/>
      <point x="1192" y="1253"/>
      <point x="1134" y="1186"/>
      <point x="1095" y="1164" type="qcurve"/>
      <point x="1128" y="1092" name="inserted"/>
      <point x="1160" y="927"/>
      <point x="1160" y="833" type="qcurve" smooth="yes"/>
    </contour>
    <contour>
      <point x="875" y="835" type="line" smooth="yes"/>
      <point x="875" y="924"/>
      <point x="846" y="1074"/>
      <point x="815.0" y="1128.0" type="qcurve" smooth="yes" name="inserted"/>
      <point x="784" y="1182"/>
      <point x="687" y="1243"/>
      <point x="618" y="1243" type="qcurve" smooth="yes"/>
      <point x="550" y="1243"/>
      <point x="458" y="1182"/>
      <point x="430.0" y="1128.0" type="qcurve" smooth="yes" name="inserted"/>
      <point x="402" y="1074"/>
      <point x="378" y="924"/>
      <point x="378" y="835" type="qcurve" smooth="yes"/>
      <point x="378" y="621" type="line" smooth="yes"/>
      <point x="378" y="533"/>
      <point x="402" y="383"/>
      <point x="430.0" y="328.0" type="qcurve" smooth="yes" name="inserted"/>
      <point x="458" y="273"/>
      <point x="550" y="211"/>
      <point x="619" y="211" type="qcurve" smooth="yes"/>
      <point x="687" y="211"/>
      <point x="784" y="273"/>
      <point x="814.5" y="327.5" type="qcurve" smooth="yes" name="inserted"/>
      <point x="845" y="382"/>
      <point x="875" y="532"/>
      <point x="875" y="621" type="qcurve" smooth="yes"/>
    </contour>
  </outline>
</glyph>
<glyph name="uhorn" format="2">
  <advance width="1229"/>
  <unicode hex="01B0"/>
  <outline>
    <contour>
      <point x="1375" y="1178" type="line"/>
      <point x="1375" y="994"/>
      <point x="1223" y="794"/>
      <point x="1067" y="768" type="qcurve"/>
      <point x="1067" y="0" type="line"/>
      <point x="815" y="0" type="line"/>
      <point x="799" y="152" type="line"/>
      <point x="744" y="71"/>
      <point x="589" y="-21"/>
      <point x="497" y="-21" type="qcurve" smooth="yes"/>
      <point x="413" y="-21"/>
      <point x="273" y="31"/>
      <point x="223" y="88" type="qcurve" smooth="yes" name="inserted"/>
      <point x="173" y="144"/>
      <point x="118" y="319"/>
      <point x="118" y="442" type="qcurve" smooth="yes"/>
      <point x="118" y="1082" type="line"/>
      <point x="396" y="1082" type="line"/>
      <point x="396" y="440" type="line" smooth="yes"/>
      <point x="396" y="374"/>
      <point x="415" y="284"/>
      <point x="436" y="257" type="qcurve" smooth="yes" name="inserted"/>
      <point x="457" y="229"/>
      <point x="525" y="205"/>
      <point x="574" y="205" type="qcurve" smooth="yes"/>
      <point x="620" y="205"/>
      <point x="694" y="225"/>
      <point x="721" y="244" type="qcurve" smooth="yes"/>
      <point x="743" y="259"/>
      <point x="776" y="299"/>
      <point x="788" y="323" type="qcurve"/>
      <point x="788" y="1082" type="line"/>
      <point x="1067" y="1082" type="line"/>
      <point x="1067" y="937" type="line"/>
      <point x="1091" y="948"/>
      <point x="1128" y="979"/>
      <point x="1141" y="1000" type="qcurve" smooth="yes"/>
      <point x="1160" y="1032"/>
      <point x="1177" y="1120"/>
      <point x="1177" y="1178" type="qcurve"/>
    </contour>
  </outline>
</glyph>
<glyph name="uni0237" format="2">
  <advance width="1229"/>
  <unicode hex="0237"/>
  <outline>
    <contour>
      <point x="310" y="1082" type="line"/>
      <point x="864" y="1082" type="line"/>
      <point x="864" y="-25" type="line" smooth="yes"/>
      <point x="864" y="-133"/>
      <point x="802" y="-288"/>
      <point x="744" y="-338" type="qcurve" smooth="yes" name="inserted"/>
      <point x="685" y="-389"/>
      <point x="515" y="-437"/>
      <point x="406" y="-437" type="qcurve" smooth="yes"/>
      <point x="382" y="-437"/>
      <point x="332" y="-435"/>
      <point x="307" y="-433" type="qcurve" smooth="yes"/>
      <point x="286" y="-431"/>
      <point x="246" y="-425"/>
      <point x="226" y="-420" type="qcurve"/>
      <point x="240" y="-194" type="line"/>
      <point x="252" y="-197"/>
      <point x="295" y="-202"/>
      <point x="318" y="-203" type="qcurve" smooth="yes" name="inserted"/>
      <point x="341" y="-205"/>
      <point x="381" y="-206"/>
      <point x="392" y="-206" type="qcurve" smooth="yes"/>
      <point x="432" y="-206"/>
      <point x="502" y="-188"/>
      <point x="528" y="-167" type="qcurve" smooth="yes" name="inserted"/>
      <point x="554" y="-146"/>
      <point x="584" y="-77"/>
      <point x="584" y="-25" type="qcurve" smooth="yes"/>
      <point x="584" y="855" type="line"/>
      <point x="310" y="855" type="line"/>
    </contour>
  </outline>
</glyph>
<glyph name="uni02F3" format="2">
  <advance width="1229"/>
  <unicode hex="02F3"/>
  <outline>
    <contour>
      <point x="441" y="-222" type="qcurve" smooth="yes"/>
      <point x="441" y="-189"/>
      <point x="467" y="-133"/>
      <point x="489.5" y="-112.5" type="qcurve" smooth="yes" name="inserted"/>
      <point x="512" y="-92"/>
      <point x="573" y="-69"/>
      <point x="608" y="-69" type="qcurve" smooth="yes"/>
      <point x="642" y="-69"/>
      <point x="702" y="-92"/>
      <point x="724.0" y="-112.5" type="qcurve" smooth="yes" name="inserted"/>
      <point x="746" y="-133"/>
      <point x="771" y="-189"/>
      <point x="771" y="-222" type="qcurve" smooth="yes"/>
      <point x="771" y="-255"/>
      <point x="746" y="-309"/>
      <point x="724.0" y="-328.5" type="qcurve" smooth="yes" name="inserted"/>
      <point x="702" y="-348"/>
      <point x="642" y="-370"/>
      <point x="608" y="-370" type="qcurve" smooth="yes"/>
      <point x="573" y="-370"/>
      <point x="512" y="-348"/>
      <point x="489.5" y="-328.5" type="qcurve" smooth="yes" name="inserted"/>
      <point x="467" y="-309"/>
      <point x="441" y="-254"/>
    </contour>
    <contour>
      <point x="551" y="-222" type="qcurve" smooth="yes"/>
      <point x="551" y="-246"/>
      <point x="583" y="-277"/>
      <point x="608" y="-277" type="qcurve" smooth="yes"/>
      <point x="631" y="-277"/>
      <point x="661" y="-246"/>
      <point x="661" y="-222" type="qcurve" smooth="yes"/>
      <point x="661" y="-196"/>
      <point x="631" y="-163"/>
      <point x="608" y="-163" type="qcurve" smooth="yes"/>
      <point x="583" y="-163"/>
      <point x="551" y="-196"/>
    </contour>
  </outline>
</glyph>
<glyph name="Lambda" format="2">
  <advance width="1229"/>
  <unicode hex="039B"/>
  <outline>
    <contour>
      <point x="612" y="1079" type="line"/>
      <point x="316" y="0" type="line"/>
      <point x="23" y="0" type="line"/>
      <point x="471" y="1456" type="line"/>
      <point x="755" y="1456" type="line"/>
      <point x="1204" y="0" type="line"/>
      <point x="910" y="0" type="line"/>
    </contour>
  </outline>
</glyph>
<glyph name="Psi" format="2">
  <advance width="1229"/>
  <unicode hex="03A8"/>
  <outline>
    <contour>
      <point x="807" y="575" type="line"/>
      <point x="843" y="585"/>
      <point x="899" y="629"/>
      <point x="918" y="663" type="qcurve" smooth="yes"/>
      <point x="939" y="701"/>
      <point x="961" y="814"/>
      <point x="961" y="890" type="qcurve" smooth="yes"/>
      <point x="961" y="1456" type="line"/>
      <point x="1243" y="1456" type="line"/>
      <point x="1243" y="890" type="line" smooth="yes"/>
      <point x="1243" y="764"/>
      <point x="1181" y="572"/>
      <point x="1124" y="505" type="qcurve" smooth="yes" name="inserted"/>
      <point x="1067" y="437"/>
      <point x="906" y="357"/>
      <point x="807" y="345" type="qcurve"/>
      <point x="807" y="0" type="line"/>
      <point x="527" y="0" type="line"/>
      <point x="527" y="344" type="line"/>
      <point x="423" y="354"/>
      <point x="254" y="431"/>
      <point x="194" y="499" type="qcurve" smooth="yes" name="inserted"/>
      <point x="134" y="567"/>
      <point x="69" y="762"/>
      <point x="69" y="890" type="qcurve" smooth="yes"/>
      <point x="69" y="1456" type="line"/>
      <point x="350" y="1456" type="line"/>
      <point x="350" y="890" type="line" smooth="yes"/>
      <point x="350" y="815"/>
      <point x="376" y="703"/>
      <point x="401" y="664" type="qcurve" smooth="yes"/>
      <point x="423" y="629"/>
      <point x="487" y="585"/>
      <point x="527" y="575" type="qcurve"/>
      <point x="527" y="1456" type="line"/>
      <point x="807" y="1456" type="line"/>
    </contour>
  </outline>
</glyph>
<glyph name="uni0411" format="2">
  <advance width="1229"/>
  <unicode hex="0411"/>
  <outline>
    <contour>
      <point x="1074" y="1228" type="line"/>
      <point x="413" y="1228" type="line"/>
      <point x="413" y="918" type="line"/>
      <point x="577" y="918" type="line" smooth="yes"/>
      <point x="703" y="918"/>
      <point x="904" y="853"/>
      <point x="973.5" y="794.0" type="qcurve" smooth="yes" name="inserted"/>
      <point x="1043" y="735"/>
      <point x="1117" y="567"/>
      <point x="1117" y="465" type="qcurve" smooth="yes"/>
      <point x="1117" y="361"/>
      <point x="1043" y="190"/>
      <point x="973.5" y="129.0" type="qcurve" smooth="yes" name="inserted"/>
      <point x="904" y="68"/>
      <point x="703" y="0"/>
      <point x="577" y="0" type="qcurve" smooth="yes"/>
      <point x="131" y="0" type="line"/>
      <point x="131" y="1456" type="line"/>
      <point x="1074" y="1456" type="line"/>
    </contour>
    <contour>
      <point x="413" y="692" type="line"/>
      <point x="413" y="226" type="line"/>
      <point x="577" y="226" type="line" smooth="yes"/>
      <point x="643" y="226"/>
      <point x="740" y="264"/>
      <point x="772.5" y="297.0" type="qcurve" smooth="yes" name="inserted"/>
      <point x="805" y="330"/>
      <point x="836" y="418"/>
      <point x="836" y="467" type="qcurve" smooth="yes"/>
      <point x="836" y="514"/>
      <point x="805" y="596"/>
      <point x="772.5" y="626.5" type="qcurve" smooth="yes" name="inserted"/>
      <point x="740" y="657"/>
      <point x="643" y="692"/>
      <point x="577" y="692" type="qcurve" smooth="yes"/>
    </contour>
  </outline>
</glyph>
<glyph name="uni0417" format="2">
  <advance width="1229"/>
  <unicode hex="0417"/>
  <outline>
    <contour>
      <point x="78" y="404" type="qcurve"/>
      <point x="360" y="404" type="line"/>
      <point x="360" y="362"/>
      <point x="397" y="290"/>
      <point x="431" y="263" type="qcurve" smooth="yes" name="inserted"/>
      <point x="465" y="236"/>
      <point x="559" y="205"/>
      <point x="616" y="205" type="qcurve" smooth="yes"/>
      <point x="682" y="205"/>
      <point x="784" y="236"/>
      <point x="819" y="264" type="qcurve" smooth="yes" name="inserted"/>
      <point x="854" y="292"/>
      <point x="890" y="367"/>
      <point x="890" y="411" type="qcurve" smooth="yes"/>
      <point x="890" y="459"/>
      <point x="867" y="534"/>
      <point x="845" y="561" type="qcurve" smooth="yes"/>
      <point x="821" y="588"/>
      <point x="750" y="621"/>
      <point x="703" y="628" type="qcurve" smooth="yes"/>
      <point x="687" y="630"/>
      <point x="651" y="632"/>
      <point x="632" y="632" type="qcurve" smooth="yes"/>
      <point x="436" y="632" type="line"/>
      <point x="436" y="852" type="line"/>
      <point x="632" y="852" type="line" smooth="yes"/>
      <point x="652" y="852"/>
      <point x="690" y="855"/>
      <point x="706" y="858" type="qcurve" smooth="yes"/>
      <point x="754" y="867"/>
      <point x="823" y="912"/>
      <point x="840" y="942" type="qcurve" smooth="yes"/>
      <point x="854" y="966"/>
      <point x="868" y="1023"/>
      <point x="868" y="1056" type="qcurve" smooth="yes"/>
      <point x="868" y="1095"/>
      <point x="838" y="1166"/>
      <point x="807" y="1192" type="qcurve" smooth="yes" name="inserted"/>
      <point x="776" y="1218"/>
      <point x="681" y="1249"/>
      <point x="616" y="1249" type="qcurve" smooth="yes"/>
      <point x="566" y="1249"/>
      <point x="480" y="1223"/>
      <point x="449" y="1199" type="qcurve" smooth="yes" name="inserted"/>
      <point x="417" y="1175"/>
      <point x="380" y="1107"/>
      <point x="380" y="1065" type="qcurve"/>
      <point x="99" y="1065" type="line"/>
      <point x="99" y="1161"/>
      <point x="182" y="1313"/>
      <point x="253" y="1366" type="qcurve" smooth="yes" name="inserted"/>
      <point x="324" y="1419"/>
      <point x="511" y="1476"/>
      <point x="616" y="1476" type="qcurve" smooth="yes"/>
      <point x="737" y="1476"/>
      <point x="935" y="1423"/>
      <point x="1005" y="1371" type="qcurve" smooth="yes" name="inserted"/>
      <point x="1074" y="1318"/>
      <point x="1150" y="1163"/>
      <point x="1150" y="1061" type="qcurve" smooth="yes"/>
      <point x="1150" y="1011"/>
      <point x="1119" y="919"/>
      <point x="1090" y="879" type="qcurve" smooth="yes" name="inserted"/>
      <point x="1061" y="838"/>
      <point x="977" y="772"/>
      <point x="924" y="748" type="qcurve"/>
      <point x="971" y="732"/>
      <point x="1049" y="686"/>
      <point x="1078" y="656" type="qcurve" smooth="yes"/>
      <point x="1124" y="610"/>
      <point x="1172" y="486"/>
      <point x="1172" y="408" type="qcurve" smooth="yes"/>
      <point x="1172" y="306"/>
      <point x="1089" y="146"/>
      <point x="1016" y="92" type="qcurve" smooth="yes" name="inserted"/>
      <point x="942" y="37"/>
      <point x="737" y="-20"/>
      <point x="616" y="-20" type="qcurve" smooth="yes"/>
      <point x="518" y="-20"/>
      <point x="326" y="29"/>
      <point x="250" y="81" type="qcurve" smooth="yes" name="inserted"/>
      <point x="173" y="132"/>
      <point x="78" y="292"/>
    </contour>
  </outline>
</glyph>
<glyph name="uni0428" format="2">
  <advance width="1229"/>
  <unicode hex="0428"/>
  <outline>
    <contour>
      <point x="355" y="1456" type="line"/>
      <point x="355" y="226" type="line"/>
      <point x="495" y="226" type="line"/>
      <point x="495" y="1456" type="line"/>
      <point x="760" y="1456" type="line"/>
      <point x="760" y="226" type="line"/>
      <point x="898" y="226" type="line"/>
      <point x="898" y="1456" type="line"/>
      <point x="1171" y="1456" type="line"/>
      <point x="1171" y="0" type="line"/>
      <point x="81" y="0" type="line"/>
      <point x="81" y="1456" type="line"/>
    </contour>
  </outline>
</glyph>
<glyph name="uni042E" format="2">
  <advance width="1229"/>
  <unicode hex="042E"/>
  <outline>
    <contour>
      <point x="1133" y="507" type="line" smooth="yes"/>
      <point x="1133" y="366"/>
      <point x="1078" y="157"/>
      <point x="1025" y="92" type="qcurve" smooth="yes"/>
      <point x="979" y="36"/>
      <point x="849" y="-21"/>
      <point x="767" y="-21" type="qcurve" smooth="yes"/>
      <point x="683" y="-21"/>
      <point x="553" y="46"/>
      <point x="510" y="112" type="qcurve" smooth="yes"/>
      <point x="466" y="177"/>
      <point x="422" y="376"/>
      <point x="422" y="507" type="qcurve" smooth="yes"/>
      <point x="422" y="604" type="line"/>
      <point x="333" y="604" type="line"/>
      <point x="333" y="0" type="line"/>
      <point x="84" y="0" type="line"/>
      <point x="84" y="1456" type="line"/>
      <point x="333" y="1456" type="line"/>
      <point x="333" y="821" type="line"/>
      <point x="422" y="821" type="line"/>
      <point x="422" y="949" type="line" smooth="yes"/>
      <point x="422" y="1098"/>
      <point x="480" y="1314"/>
      <point x="535" y="1379" type="qcurve" smooth="yes"/>
      <point x="578" y="1428"/>
      <point x="694" y="1477"/>
      <point x="767" y="1477" type="qcurve" smooth="yes"/>
      <point x="838" y="1477"/>
      <point x="954" y="1435"/>
      <point x="998" y="1393" type="qcurve" smooth="yes"/>
      <point x="1064" y="1330"/>
      <point x="1133" y="1107"/>
      <point x="1133" y="949" type="qcurve" smooth="yes"/>
    </contour>
    <contour>
      <point x="876" y="983" type="line" smooth="yes"/>
      <point x="876" y="1058"/>
      <point x="866" y="1161"/>
      <point x="853.5" y="1193.0" type="qcurve" smooth="yes" name="inserted"/>
      <point x="841" y="1225"/>
      <point x="799" y="1253"/>
      <point x="767" y="1253" type="qcurve" smooth="yes"/>
      <point x="740" y="1253"/>
      <point x="703" y="1225"/>
      <point x="691.5" y="1193.0" type="qcurve" smooth="yes" name="inserted"/>
      <point x="680" y="1161"/>
      <point x="670" y="1058"/>
      <point x="670" y="983" type="qcurve" smooth="yes"/>
      <point x="670" y="474" type="line" smooth="yes"/>
      <point x="670" y="398"/>
      <point x="680" y="294"/>
      <point x="691.5" y="262.0" type="qcurve" smooth="yes" name="inserted"/>
      <point x="703" y="230"/>
      <point x="740" y="202"/>
      <point x="767" y="202" type="qcurve" smooth="yes"/>
      <point x="799" y="202"/>
      <point x="841" y="230"/>
      <point x="853.5" y="262.0" type="qcurve" smooth="yes" name="inserted"/>
      <point x="866" y="294"/>
      <point x="876" y="398"/>
      <point x="876" y="474" type="qcurve" smooth="yes"/>
    </contour>
  </outline>
</glyph>
<glyph name="uni0432" format="2">
  <advance width="1229"/>
  <unicode hex="0432"/>
  <outline>
    <contour>
      <point x="138" y="0" type="line"/>
      <point x="138" y="1082" type="line"/>
      <point x="587" y="1082" type="line" smooth="yes"/>
      <point x="692" y="1082"/>
      <point x="861" y="1045"/>
      <point x="921" y="1008" type="qcurve" smooth="yes" name="inserted"/>
      <point x="980" y="970"/>
      <point x="1043" y="856"/>
      <point x="1043" y="780" type="qcurve" smooth="yes"/>
      <point x="1043" y="737"/>
      <point x="1011" y="661"/>
      <point x="980" y="630" type="qcurve" smooth="yes"/>
      <point x="957" y="607"/>
      <point x="892" y="568"/>
      <point x="851" y="554" type="qcurve"/>
      <point x="863" y="552" type="line"/>
      <point x="920" y="539"/>
      <point x="1006" y="492"/>
      <point x="1036" y="462" type="qcurve" smooth="yes" name="inserted"/>
      <point x="1066" y="430"/>
      <point x="1096" y="352"/>
      <point x="1096" y="309" type="qcurve" smooth="yes"/>
      <point x="1096" y="232"/>
      <point x="1037" y="116"/>
      <point x="981" y="78" type="qcurve" smooth="yes" name="inserted"/>
      <point x="925" y="39"/>
      <point x="762" y="0"/>
      <point x="657" y="0" type="qcurve" smooth="yes"/>
    </contour>
    <contour>
      <point x="416" y="451" type="line"/>
      <point x="416" y="221" type="line"/>
      <point x="657" y="221" type="line" smooth="yes"/>
      <point x="699" y="221"/>
      <point x="761" y="236"/>
      <point x="780" y="250" type="qcurve" smooth="yes"/>
      <point x="800" y="265"/>
      <point x="818" y="307"/>
      <point x="818" y="335" type="qcurve" smooth="yes"/>
      <point x="818" y="360"/>
      <point x="802" y="401"/>
      <point x="784" y="416" type="qcurve" smooth="yes"/>
      <point x="765" y="433"/>
      <point x="702" y="451"/>
      <point x="657" y="451" type="qcurve" smooth="yes"/>
    </contour>
    <contour>
      <point x="416" y="640" type="line"/>
      <point x="602" y="640" type="line" smooth="yes"/>
      <point x="644" y="641"/>
      <point x="706" y="655"/>
      <point x="726" y="668" type="qcurve" smooth="yes"/>
      <point x="746" y="681"/>
      <point x="765" y="719"/>
      <point x="765" y="744" type="qcurve" smooth="yes"/>
      <point x="765" y="772"/>
      <point x="747" y="813"/>
      <point x="728" y="827" type="qcurve" smooth="yes"/>
      <point x="707" y="843"/>
      <point x="636" y="859"/>
      <point x="587" y="859" type="qcurve" smooth="yes"/>
      <point x="416" y="859" type="line"/>
    </contour>
  </outline>
</glyph>
<glyph name="uni043B" format="2">
  <advance width="1229"/>
  <unicode hex="043B"/>
  <outline>
    <contour>
      <point x="1083" y="1082" type="line"/>
      <point x="1083" y="0" type="line"/>
      <point x="804" y="0" type="line"/>
      <point x="804" y="856" type="line"/>
      <point x="510" y="856" type="line"/>
      <point x="510" y="621" type="line"/>
      <point x="510" y="565"/>
      <point x="505" y="461"/>
      <point x="499" y="415" type="qcurve" smooth="yes"/>
      <point x="489" y="336"/>
      <point x="449" y="206"/>
      <point x="418" y="156" type="qcurve" smooth="yes" name="inserted"/>
      <point x="368" y="78"/>
      <point x="205" y="0"/>
      <point x="85" y="0" type="qcurve" smooth="yes"/>
      <point x="36" y="0" type="line"/>
      <point x="34" y="229" type="line"/>
      <point x="67" y="229" type="line" smooth="yes"/>
      <point x="120" y="229"/>
      <point x="185" y="271"/>
      <point x="203" y="318" type="qcurve" smooth="yes" name="inserted"/>
      <point x="212" y="344"/>
      <point x="224" y="412"/>
      <point x="227" y="455" type="qcurve" smooth="yes"/>
      <point x="230" y="490"/>
      <point x="231" y="573"/>
      <point x="231" y="621" type="qcurve"/>
      <point x="231" y="1082" type="line"/>
    </contour>
  </outline>
</glyph>
<glyph name="uni044B" format="2">
  <advance width="1229"/>
  <unicode hex="044B"/>
  <outline>
    <contour>
      <point x="364" y="697" type="line"/>
      <point x="405" y="697" type="line" smooth="yes"/>
      <point x="503" y="697"/>
      <point x="647" y="644"/>
      <point x="694.5" y="598.5" type="qcurve" smooth="yes" name="inserted"/>
      <point x="742" y="553"/>
      <point x="788" y="429"/>
      <point x="788" y="357" type="qcurve" smooth="yes"/>
      <point x="788" y="282"/>
      <point x="742" y="152"/>
      <point x="694.5" y="104.0" type="qcurve" smooth="yes" name="inserted"/>
      <point x="647" y="56"/>
      <point x="503" y="0"/>
      <point x="405" y="0" type="qcurve" smooth="yes"/>
      <point x="99" y="0" type="line"/>
      <point x="99" y="1082" type="line"/>
      <point x="364" y="1082" type="line"/>
    </contour>
    <contour>
      <point x="1148" y="0" type="line"/>
      <point x="867" y="0" type="line"/>
      <point x="867" y="1082" type="line"/>
      <point x="1148" y="1082" type="line"/>
    </contour>
    <contour>
      <point x="364" y="504" type="line"/>
      <point x="364" y="216" type="line"/>
      <point x="405" y="216" type="line" smooth="yes"/>
      <point x="451" y="216"/>
      <point x="504" y="240"/>
      <point x="518" y="259.0" type="qcurve" smooth="yes" name="inserted"/>
      <point x="531" y="278"/>
      <point x="538" y="325"/>
      <point x="538" y="349" type="qcurve" smooth="yes"/>
      <point x="538" y="375"/>
      <point x="531" y="430"/>
      <point x="518" y="453" type="qcurve" smooth="yes" name="inserted"/>
      <point x="504" y="475"/>
      <point x="451" y="504"/>
      <point x="405" y="504" type="qcurve" smooth="yes"/>
    </contour>
  </outline>
</glyph>
<glyph name="uni0452" format="2">
  <advance width="1229"/>
  <unicode hex="0452"/>
  <outline>
    <contour>
      <point x="642" y="1190" type="line"/>
      <point x="409" y="1190" type="line"/>
      <point x="409" y="933" type="line"/>
      <point x="433" y="968"/>
      <point x="489" y="1025"/>
      <point x="521" y="1046" type="qcurve" smooth="yes"/>
      <point x="563" y="1073"/>
      <point x="660" y="1102"/>
      <point x="714" y="1102" type="qcurve" smooth="yes"/>
      <point x="799" y="1102"/>
      <point x="941" y="1051"/>
      <point x="992" y="997" type="qcurve" smooth="yes" name="inserted"/>
      <point x="1043" y="943"/>
      <point x="1100" y="774"/>
      <point x="1100" y="655" type="qcurve"/>
      <point x="1101" y="-42" type="line"/>
      <point x="1101" y="-138"/>
      <point x="1050" y="-285"/>
      <point x="1002" y="-335" type="qcurve" smooth="yes" name="inserted"/>
      <point x="954" y="-385"/>
      <point x="815" y="-437"/>
      <point x="728" y="-437" type="qcurve" smooth="yes"/>
      <point x="690" y="-437"/>
      <point x="625" y="-430"/>
      <point x="588" y="-420" type="qcurve"/>
      <point x="602" y="-201" type="line"/>
      <point x="624" y="-207"/>
      <point x="676" y="-213"/>
      <point x="702" y="-213" type="qcurve" smooth="yes"/>
      <point x="726" y="-213"/>
      <point x="765" y="-197"/>
      <point x="780" y="-182" type="qcurve" smooth="yes"/>
      <point x="799" y="-161"/>
      <point x="821" y="-90"/>
      <point x="823" y="-42" type="qcurve"/>
      <point x="822" y="657" type="line" smooth="yes"/>
      <point x="822" y="715"/>
      <point x="793" y="799"/>
      <point x="766" y="825" type="qcurve" smooth="yes" name="inserted"/>
      <point x="739" y="851"/>
      <point x="663" y="876"/>
      <point x="615" y="876" type="qcurve" smooth="yes"/>
      <point x="583" y="876"/>
      <point x="527" y="865"/>
      <point x="503" y="855" type="qcurve" smooth="yes"/>
      <point x="474" y="843"/>
      <point x="427" y="805"/>
      <point x="409" y="781" type="qcurve"/>
      <point x="409" y="0" type="line"/>
      <point x="131" y="0" type="line"/>
      <point x="131" y="1190" type="line"/>
      <point x="-50" y="1190" type="line"/>
      <point x="-50" y="1370" type="line"/>
      <point x="131" y="1370" type="line"/>
      <point x="131" y="1536" type="line"/>
      <point x="409" y="1536" type="line"/>
      <point x="409" y="1370" type="line"/>
      <point x="642" y="1370" type="line"/>
    </contour>
  </outline>
</glyph>
<glyph name="uni0461" format="2">
  <advance width="1229"/>
  <unicode hex="0461"/>
  <outline>
    <contour>
      <point x="1165" y="1082" type="line"/>
      <point x="1165" y="393" type="line" smooth="yes"/>
      <point x="1165" y="291"/>
      <point x="1118" y="136"/>
      <point x="1075" y="84" type="qcurve" smooth="yes" name="inserted"/>
      <point x="1032" y="32"/>
      <point x="914" y="-21"/>
      <point x="843" y="-21" type="qcurve" smooth="yes"/>
      <point x="797" y="-21"/>
      <point x="717" y="6"/>
      <point x="684" y="33" type="qcurve" smooth="yes"/>
      <point x="665" y="49"/>
      <point x="633" y="90"/>
      <point x="619" y="115" type="qcurve"/>
      <point x="608" y="94"/>
      <point x="582" y="58"/>
      <point x="567" y="44" type="qcurve" smooth="yes"/>
      <point x="534" y="11"/>
      <point x="451" y="-21"/>
      <point x="403" y="-21" type="qcurve" smooth="yes"/>
      <point x="330" y="-21"/>
      <point x="207" y="32"/>
      <point x="163" y="84" type="qcurve" smooth="yes" name="inserted"/>
      <point x="119" y="136"/>
      <point x="69" y="291"/>
      <point x="69" y="393" type="qcurve" smooth="yes"/>
      <point x="69" y="1082" type="line"/>
      <point x="322" y="1082" type="line"/>
      <point x="322" y="393" type="line" smooth="yes"/>
      <point x="322" y="341"/>
      <point x="333" y="267"/>
      <point x="344" y="244" type="qcurve" smooth="yes"/>
      <point x="354" y="223"/>
      <point x="384" y="202"/>
      <point x="403" y="202" type="qcurve" smooth="yes"/>
      <point x="424" y="202"/>
      <point x="456" y="221"/>
      <point x="466" y="242" type="qcurve" smooth="yes"/>
      <point x="478" y="265"/>
      <point x="490" y="340"/>
      <point x="490" y="393" type="qcurve" smooth="yes"/>
      <point x="490" y="1082" type="line"/>
      <point x="749" y="1082" type="line"/>
      <point x="749" y="393" type="line" smooth="yes"/>
      <point x="749" y="339"/>
      <point x="762" y="262"/>
      <point x="776" y="239" type="qcurve" smooth="yes"/>
      <point x="788" y="220"/>
      <point x="821" y="202"/>
      <point x="843" y="202" type="qcurve" smooth="yes"/>
      <point x="860" y="202"/>
      <point x="886" y="224"/>
      <point x="895" y="246" type="qcurve" smooth="yes"/>
      <point x="903" y="269"/>
      <point x="912" y="342"/>
      <point x="912" y="393" type="qcurve" smooth="yes"/>
      <point x="912" y="1082" type="line"/>
    </contour>
  </outline>
</glyph>
<glyph name="uni0465" format="2">
  <advance width="1229"/>
  <unicode hex="0465"/>
  <outline>
    <contour>
      <point x="899" y="453" type="line"/>
      <point x="717" y="453" type="line"/>
      <point x="717" y="429" type="line"/>
      <point x="718" y="409"/>
      <point x="721" y="368"/>
      <point x="725" y="348" type="qcurve" smooth="yes"/>
      <point x="730" y="317"/>
      <point x="749" y="267"/>
      <point x="763" y="250" type="qcurve" smooth="yes"/>
      <point x="775" y="236"/>
      <point x="808" y="220"/>
      <point x="829" y="220" type="qcurve" smooth="yes"/>
      <point x="857" y="220"/>
      <point x="897" y="242"/>
      <point x="909" y="264" type="qcurve" smooth="yes"/>
      <point x="918" y="280"/>
      <point x="929" y="321"/>
      <point x="931" y="347" type="qcurve"/>
      <point x="1184" y="347" type="line"/>
      <point x="1181" y="254"/>
      <point x="1120" y="116"/>
      <point x="1072" y="71" type="qcurve" smooth="yes" name="inserted"/>
      <point x="1024" y="25"/>
      <point x="900" y="-20"/>
      <point x="833" y="-20" type="qcurve" smooth="yes"/>
      <point x="763" y="-20"/>
      <point x="648" y="18"/>
      <point x="604" y="53" type="qcurve" smooth="yes"/>
      <point x="552" y="94"/>
      <point x="478" y="219"/>
      <point x="460" y="291" type="qcurve" smooth="yes"/>
      <point x="450" y="326"/>
      <point x="439" y="400"/>
      <point x="437" y="438" type="qcurve"/>
      <point x="436" y="453" type="line"/>
      <point x="344" y="453" type="line"/>
      <point x="344" y="0" type="line"/>
      <point x="77" y="0" type="line"/>
      <point x="77" y="1083" type="line"/>
      <point x="344" y="1083" type="line"/>
      <point x="344" y="638" type="line"/>
      <point x="436" y="638" type="line"/>
      <point x="438" y="681"/>
      <point x="451" y="765"/>
      <point x="462" y="804" type="qcurve" smooth="yes"/>
      <point x="485" y="883"/>
      <point x="571" y="1014"/>
      <point x="636" y="1054" type="qcurve" smooth="yes"/>
      <point x="676" y="1078"/>
      <point x="774" y="1105"/>
      <point x="832" y="1105" type="qcurve" smooth="yes"/>
      <point x="907" y="1105"/>
      <point x="1034" y="1063"/>
      <point x="1082" y="1016" type="qcurve" smooth="yes" name="inserted"/>
      <point x="1129" y="969"/>
      <point x="1183" y="818"/>
      <point x="1184" y="709" type="qcurve"/>
      <point x="931" y="709" type="line"/>
      <point x="929" y="747"/>
      <point x="917" y="804"/>
      <point x="906" y="824" type="qcurve" smooth="yes" name="inserted"/>
      <point x="894" y="843"/>
      <point x="856" y="864"/>
      <point x="828" y="864" type="qcurve" smooth="yes"/>
      <point x="811" y="864"/>
      <point x="785" y="854"/>
      <point x="774" y="845" type="qcurve" smooth="yes"/>
      <point x="750" y="825"/>
      <point x="726" y="751"/>
      <point x="722" y="711" type="qcurve" smooth="yes"/>
      <point x="720" y="692"/>
      <point x="717" y="655"/>
      <point x="717" y="638" type="qcurve"/>
      <point x="899" y="638" type="line"/>
    </contour>
  </outline>
</glyph>
<glyph name="uni0469" format="2">
  <advance width="1229"/>
  <unicode hex="0469"/>
  <outline>
    <contour>
      <point x="919" y="260" type="line"/>
      <point x="872" y="260" type="line"/>
      <point x="872" y="0" type="line"/>
      <point x="703" y="0" type="line"/>
      <point x="703" y="260" type="line"/>
      <point x="647" y="260" type="line"/>
      <point x="573" y="0" type="line"/>
      <point x="345" y="0" type="line"/>
      <point x="426" y="260" type="line"/>
      <point x="307" y="260" type="line"/>
      <point x="307" y="0" type="line"/>
      <point x="82" y="0" type="line"/>
      <point x="82" y="1082" type="line"/>
      <point x="307" y="1082" type="line"/>
      <point x="307" y="455" type="line"/>
      <point x="487" y="455" type="line"/>
      <point x="684" y="1082" type="line"/>
      <point x="904" y="1082" type="line"/>
      <point x="1214" y="0" type="line"/>
      <point x="985" y="0" type="line"/>
    </contour>
    <contour>
      <point x="703" y="455" type="line"/>
      <point x="869" y="455" type="line"/>
      <point x="809" y="690" type="line"/>
      <point x="791" y="761" type="line"/>
      <point x="770" y="689" type="line"/>
    </contour>
  </outline>
</glyph>
<glyph name="uni046B" format="2">
  <advance width="1229"/>
  <unicode hex="046B"/>
  <outline>
    <contour>
      <point x="65" y="0" type="line"/>
      <point x="65" y="238" type="line" smooth="yes"/>
      <point x="65" y="327"/>
      <point x="105" y="459"/>
      <point x="143" y="504" type="qcurve" smooth="yes" name="inserted"/>
      <point x="179" y="547"/>
      <point x="284" y="597"/>
      <point x="351" y="606" type="qcurve"/>
      <point x="359" y="607" type="line"/>
      <point x="84" y="1082" type="line"/>
      <point x="1134" y="1082" type="line"/>
      <point x="857" y="605" type="line"/>
      <point x="869" y="603" type="line"/>
      <point x="923" y="595"/>
      <point x="1028" y="543"/>
      <point x="1064" y="499" type="qcurve" smooth="yes" name="inserted"/>
      <point x="1100" y="454"/>
      <point x="1138" y="325"/>
      <point x="1138" y="238" type="qcurve" smooth="yes"/>
      <point x="1138" y="0" type="line"/>
      <point x="859" y="0" type="line"/>
      <point x="859" y="238" type="line" smooth="yes"/>
      <point x="859" y="284"/>
      <point x="848" y="346"/>
      <point x="836" y="365" type="qcurve" smooth="yes" name="inserted"/>
      <point x="824" y="383"/>
      <point x="788" y="398"/>
      <point x="763" y="398" type="qcurve"/>
      <point x="745" y="398" type="line"/>
      <point x="745" y="395" type="line"/>
      <point x="745" y="0" type="line"/>
      <point x="467" y="0" type="line"/>
      <point x="467" y="396" type="line"/>
      <point x="467" y="398" type="line"/>
      <point x="439" y="398" type="line"/>
      <point x="415" y="398"/>
      <point x="379" y="383"/>
      <point x="367" y="365" type="qcurve" smooth="yes" name="inserted"/>
      <point x="355" y="346"/>
      <point x="343" y="284"/>
      <point x="343" y="238" type="qcurve" smooth="yes"/>
      <point x="343" y="0" type="line"/>
    </contour>
    <contour>
      <point x="740" y="894" type="line"/>
      <point x="478" y="894" type="line"/>
      <point x="603" y="638" type="line"/>
      <point x="608" y="625" type="line"/>
      <point x="611" y="625" type="line"/>
      <point x="615" y="638" type="line"/>
    </contour>
  </outline>
</glyph>
<glyph name="uni046C" format="2">
  <advance width="1229"/>
  <unicode hex="046C"/>
  <outline>
    <contour>
      <point x="365" y="0" type="line"/>
      <point x="359" y="435" type="line"/>
      <point x="359" y="464"/>
      <point x="363" y="518"/>
      <point x="368" y="543" type="qcurve" smooth="yes"/>
      <point x="370" y="556"/>
      <point x="377" y="583"/>
      <point x="381" y="595" type="qcurve"/>
      <point x="277" y="595" type="line"/>
      <point x="277" y="0" type="line"/>
      <point x="54" y="0" type="line"/>
      <point x="54" y="1456" type="line"/>
      <point x="277" y="1456" type="line"/>
      <point x="277" y="796" type="line"/>
      <point x="629" y="796" type="line"/>
      <point x="403" y="1456" type="line"/>
      <point x="1193" y="1456" type="line"/>
      <point x="966" y="792" type="line"/>
      <point x="971" y="791" type="line"/>
      <point x="1035" y="783"/>
      <point x="1132" y="727"/>
      <point x="1163" y="682" type="qcurve" smooth="yes" name="inserted"/>
      <point x="1195" y="636"/>
      <point x="1228" y="511"/>
      <point x="1228" y="435" type="qcurve"/>
      <point x="1224" y="0" type="line"/>
      <point x="1009" y="0" type="line"/>
      <point x="1001" y="435" type="line" smooth="yes"/>
      <point x="1001" y="465"/>
      <point x="996" y="520"/>
      <point x="987" y="542" type="qcurve" smooth="yes" name="inserted"/>
      <point x="978" y="563"/>
      <point x="945" y="589"/>
      <point x="917" y="589" type="qcurve" smooth="yes"/>
      <point x="903" y="589" type="line"/>
      <point x="903" y="0" type="line"/>
      <point x="692" y="0" type="line"/>
      <point x="692" y="589" type="line"/>
      <point x="667" y="589" type="line" smooth="yes"/>
      <point x="640" y="589"/>
      <point x="605" y="563"/>
      <point x="595" y="542" type="qcurve" smooth="yes" name="inserted"/>
      <point x="585" y="520"/>
      <point x="578" y="465"/>
      <point x="578" y="435" type="qcurve"/>
      <point x="575" y="0" type="line"/>
    </contour>
    <contour>
      <point x="885" y="1249" type="line"/>
      <point x="711" y="1249" type="line"/>
      <point x="797" y="977" type="line"/>
      <point x="799" y="970" type="line"/>
      <point x="801" y="977" type="line"/>
    </contour>
  </outline>
</glyph>
<glyph name="uni046F" format="2">
  <advance width="1229"/>
  <unicode hex="046F"/>
  <outline>
    <contour>
      <point x="552" y="626" type="line" smooth="yes"/>
      <point x="573" y="626"/>
      <point x="610" y="629"/>
      <point x="626" y="632" type="qcurve" smooth="yes"/>
      <point x="649" y="637"/>
      <point x="686" y="653"/>
      <point x="700" y="664" type="qcurve" smooth="yes" name="inserted"/>
      <point x="723" y="682"/>
      <point x="744" y="731"/>
      <point x="744" y="760" type="qcurve" smooth="yes"/>
      <point x="744" y="781"/>
      <point x="729" y="817"/>
      <point x="713" y="831" type="qcurve" smooth="yes"/>
      <point x="699" y="844"/>
      <point x="656" y="864"/>
      <point x="628" y="870" type="qcurve" smooth="yes"/>
      <point x="608" y="874"/>
      <point x="562" y="878"/>
      <point x="535" y="878" type="qcurve" smooth="yes"/>
      <point x="269" y="878" type="line"/>
      <point x="269" y="1082" type="line"/>
      <point x="535" y="1082" type="line" smooth="yes"/>
      <point x="611" y="1082"/>
      <point x="745" y="1065"/>
      <point x="801" y="1047" type="qcurve" smooth="yes"/>
      <point x="856" y="1029"/>
      <point x="942" y="975"/>
      <point x="970" y="940" type="qcurve" smooth="yes"/>
      <point x="995" y="908"/>
      <point x="1022" y="830"/>
      <point x="1022" y="783" type="qcurve" smooth="yes"/>
      <point x="1022" y="731"/>
      <point x="987" y="646"/>
      <point x="954" y="613" type="qcurve" smooth="yes"/>
      <point x="933" y="591"/>
      <point x="876" y="555"/>
      <point x="842" y="541" type="qcurve"/>
      <point x="893" y="526"/>
      <point x="972" y="483"/>
      <point x="1000" y="456" type="qcurve" smooth="yes"/>
      <point x="1031" y="426"/>
      <point x="1063" y="349"/>
      <point x="1063" y="304" type="qcurve" smooth="yes"/>
      <point x="1063" y="265"/>
      <point x="1046" y="195"/>
      <point x="1030" y="165" type="qcurve" smooth="yes"/>
      <point x="995" y="102"/>
      <point x="857" y="16"/>
      <point x="767" y="-5" type="qcurve" smooth="yes"/>
      <point x="730" y="-14"/>
      <point x="648" y="-21"/>
      <point x="604" y="-21" type="qcurve" smooth="yes"/>
      <point x="555" y="-21" type="line" smooth="yes"/>
      <point x="515" y="-21"/>
      <point x="461" y="-39"/>
      <point x="446" y="-55" type="qcurve" smooth="yes"/>
      <point x="434" y="-67"/>
      <point x="423" y="-99"/>
      <point x="423" y="-117" type="qcurve" smooth="yes"/>
      <point x="423" y="-152"/>
      <point x="451" y="-204"/>
      <point x="472" y="-223" type="qcurve" smooth="yes" name="inserted"/>
      <point x="492" y="-242"/>
      <point x="539" y="-268"/>
      <point x="557" y="-277" type="qcurve"/>
      <point x="475" y="-434" type="line"/>
      <point x="415" y="-414"/>
      <point x="309" y="-348"/>
      <point x="269" y="-303" type="qcurve" smooth="yes" name="inserted"/>
      <point x="229" y="-258"/>
      <point x="182" y="-146"/>
      <point x="181" y="-81" type="qcurve" smooth="yes"/>
      <point x="181" y="-14"/>
      <point x="228" y="86"/>
      <point x="271" y="119" type="qcurve" smooth="yes" name="inserted"/>
      <point x="314" y="151"/>
      <point x="436" y="183"/>
      <point x="511" y="183" type="qcurve" smooth="yes"/>
      <point x="564" y="183" type="line" smooth="yes"/>
      <point x="597" y="183"/>
      <point x="654" y="191"/>
      <point x="678" y="198" type="qcurve" smooth="yes"/>
      <point x="712" y="208"/>
      <point x="760" y="241"/>
      <point x="772" y="263" type="qcurve" smooth="yes"/>
      <point x="779" y="274"/>
      <point x="786" y="299"/>
      <point x="786" y="313" type="qcurve" smooth="yes"/>
      <point x="786" y="336"/>
      <point x="771" y="375"/>
      <point x="756" y="391" type="qcurve" smooth="yes"/>
      <point x="738" y="410"/>
      <point x="677" y="436"/>
      <point x="635" y="443" type="qcurve" smooth="yes"/>
      <point x="616" y="446"/>
      <point x="571" y="449"/>
      <point x="546" y="449" type="qcurve" smooth="yes"/>
      <point x="389" y="449" type="line"/>
      <point x="389" y="626" type="line"/>
    </contour>
    <contour>
      <point x="585" y="1400" type="line"/>
      <point x="732" y="1526" type="line"/>
      <point x="969" y="1526" type="line"/>
      <point x="969" y="1507" type="line"/>
      <point x="673" y="1254" type="line"/>
      <point x="498" y="1254" type="line"/>
      <point x="202" y="1506" type="line"/>
      <point x="202" y="1526" type="line"/>
      <point x="439" y="1526" type="line"/>
    </contour>
  </outline>
</glyph>
<glyph name="uni0472" format="2">
  <advance width="1229"/>
  <unicode hex="0472"/>
  <outline>
    <contour>
      <point x="1145" y="621" type="line" smooth="yes"/>
      <point x="1145" y="542"/>
      <point x="1121" y="396"/>
      <point x="1098" y="333" type="qcurve" smooth="yes"/>
      <point x="1065.2432683750662" y="243.82889724323493"/>
      <point x="957.0330335090425" y="103.61542824030914"/>
      <point x="886" y="57" type="qcurve" smooth="yes"/>
      <point x="827" y="20"/>
      <point x="685" y="-20"/>
      <point x="604" y="-20" type="qcurve" smooth="yes"/>
      <point x="519" y="-20"/>
      <point x="374" y="24"/>
      <point x="316" y="65" type="qcurve" smooth="yes"/>
      <point x="246" y="113"/>
      <point x="143" y="265"/>
      <point x="113" y="362" type="qcurve" smooth="yes"/>
      <point x="96" y="420"/>
      <point x="78" y="550"/>
      <point x="78" y="621" type="qcurve" smooth="yes"/>
      <point x="78" y="833" type="line" smooth="yes"/>
      <point x="78" y="906"/>
      <point x="97" y="1040"/>
      <point x="116" y="1100" type="qcurve" smooth="yes"/>
      <point x="146" y="1196"/>
      <point x="253" y="1352"/>
      <point x="328" y="1399" type="qcurve" smooth="yes"/>
      <point x="385" y="1436"/>
      <point x="523" y="1476"/>
      <point x="603" y="1476" type="qcurve" smooth="yes"/>
      <point x="673" y="1476"/>
      <point x="799" y="1446"/>
      <point x="852" y="1418" type="qcurve" smooth="yes"/>
      <point x="949" y="1366"/>
      <point x="1083" y="1185"/>
      <point x="1115" y="1066" type="qcurve" smooth="yes"/>
      <point x="1130" y="1013"/>
      <point x="1145" y="896"/>
      <point x="1145" y="833" type="qcurve" smooth="yes"/>
    </contour>
    <contour>
      <point x="363" y="827" type="line"/>
      <point x="860" y="827" type="line"/>
      <point x="860" y="835" type="line" smooth="yes"/>
      <point x="860" y="876"/>
      <point x="854" y="952"/>
      <point x="848" y="987" type="qcurve" smooth="yes"/>
      <point x="835.6787286102342" y="1057.4072650843757"/>
      <point x="779.678551754066" y="1168.5833486357265"/>
      <point x="738" y="1201" type="qcurve" smooth="yes"/>
      <point x="711" y="1221"/>
      <point x="644" y="1243"/>
      <point x="603" y="1243" type="qcurve" smooth="yes"/>
      <point x="563" y="1243"/>
      <point x="499" y="1222"/>
      <point x="474" y="1202" type="qcurve" smooth="yes"/>
      <point x="440" y="1175"/>
      <point x="394" y="1088"/>
      <point x="381" y="1029" type="qcurve" smooth="yes"/>
      <point x="371" y="987"/>
      <point x="363" y="889"/>
      <point x="363" y="835" type="qcurve" smooth="yes"/>
    </contour>
    <contour>
      <point x="860" y="647" type="line"/>
      <point x="363" y="647" type="line"/>
      <point x="363" y="621" type="line" smooth="yes"/>
      <point x="363" y="575"/>
      <point x="369" y="490"/>
      <point x="376" y="452" type="qcurve" smooth="yes"/>
      <point x="387" y="388"/>
      <point x="432" y="289"/>
      <point x="468" y="258" type="qcurve" smooth="yes"/>
      <point x="494" y="235"/>
      <point x="561" y="211"/>
      <point x="604" y="211" type="qcurve" smooth="yes"/>
      <point x="646" y="211"/>
      <point x="715" y="235"/>
      <point x="742" y="257" type="qcurve" smooth="yes"/>
      <point x="778" y="286"/>
      <point x="826" y="378"/>
      <point x="841" y="437" type="qcurve" smooth="yes"/>
      <point x="850" y="477"/>
      <point x="860" y="570"/>
      <point x="860" y="621" type="qcurve" smooth="yes"/>
    </contour>
  </outline>
</glyph>
<glyph name="uni047D" format="2">
  <advance width="1229"/>
  <unicode hex="047D"/>
  <outline>
    <contour>
      <point x="806" y="1102" type="line"/>
      <point x="879" y="1102"/>
      <point x="1014" y="1054"/>
      <point x="1066" y="1006" type="qcurve" smooth="yes" name="inserted"/>
      <point x="1117" y="957"/>
      <point x="1178" y="810"/>
      <point x="1178" y="712" type="qcurve" smooth="yes"/>
      <point x="1178" y="329" type="line" smooth="yes"/>
      <point x="1178" y="240"/>
      <point x="1123" y="109"/>
      <point x="1077" y="66" type="qcurve" smooth="yes" name="inserted"/>
      <point x="1030" y="22"/>
      <point x="910" y="-21"/>
      <point x="846" y="-21" type="qcurve" smooth="yes"/>
      <point x="800" y="-21"/>
      <point x="718" y="12"/>
      <point x="686" y="43" type="qcurve" smooth="yes"/>
      <point x="669" y="60"/>
      <point x="638" y="104"/>
      <point x="626" y="130" type="qcurve"/>
      <point x="615" y="105"/>
      <point x="586" y="63"/>
      <point x="570" y="47" type="qcurve" smooth="yes"/>
      <point x="537" y="14"/>
      <point x="455" y="-21"/>
      <point x="407" y="-21" type="qcurve" smooth="yes"/>
      <point x="342" y="-21"/>
      <point x="222" y="22"/>
      <point x="176" y="66" type="qcurve" smooth="yes" name="inserted"/>
      <point x="129" y="109"/>
      <point x="74" y="240"/>
      <point x="74" y="329" type="qcurve" smooth="yes"/>
      <point x="74" y="712" type="line" smooth="yes"/>
      <point x="74" y="810"/>
      <point x="135" y="957"/>
      <point x="187" y="1006" type="qcurve" smooth="yes" name="inserted"/>
      <point x="239" y="1054"/>
      <point x="373" y="1102"/>
      <point x="447" y="1102" type="qcurve"/>
      <point x="447" y="909" type="line"/>
      <point x="417" y="909"/>
      <point x="373" y="891"/>
      <point x="359" y="869" type="qcurve" smooth="yes" name="inserted"/>
      <point x="344" y="847"/>
      <point x="331" y="770"/>
      <point x="331" y="712" type="qcurve" smooth="yes"/>
      <point x="331" y="353" type="line" smooth="yes"/>
      <point x="331" y="305"/>
      <point x="345" y="238"/>
      <point x="359" y="220" type="qcurve" smooth="yes"/>
      <point x="369" y="207"/>
      <point x="396" y="195"/>
      <point x="414" y="195" type="qcurve" smooth="yes"/>
      <point x="439" y="195"/>
      <point x="476" y="206"/>
      <point x="487" y="221" type="qcurve" smooth="yes" name="inserted"/>
      <point x="493" y="230"/>
      <point x="502" y="255"/>
      <point x="505" y="272" type="qcurve" smooth="yes"/>
      <point x="507" y="284"/>
      <point x="509" y="315"/>
      <point x="509" y="333" type="qcurve" smooth="yes"/>
      <point x="509" y="577" type="line"/>
      <point x="743" y="577" type="line"/>
      <point x="743" y="333" type="line" smooth="yes"/>
      <point x="743" y="317"/>
      <point x="745" y="288"/>
      <point x="747" y="277" type="qcurve" smooth="yes"/>
      <point x="750" y="258"/>
      <point x="761" y="230"/>
      <point x="769" y="221" type="qcurve" smooth="yes" name="inserted"/>
      <point x="782" y="206"/>
      <point x="820" y="195"/>
      <point x="846" y="195" type="qcurve" smooth="yes"/>
      <point x="865" y="195"/>
      <point x="892" y="210"/>
      <point x="901" y="225" type="qcurve" smooth="yes"/>
      <point x="912" y="244"/>
      <point x="921" y="308"/>
      <point x="921" y="353" type="qcurve" smooth="yes"/>
      <point x="921" y="712" type="line" smooth="yes"/>
      <point x="921" y="770"/>
      <point x="908" y="847"/>
      <point x="894" y="869" type="qcurve" smooth="yes" name="inserted"/>
      <point x="879" y="891"/>
      <point x="836" y="909"/>
      <point x="806" y="909" type="qcurve"/>
    </contour>
    <contour>
      <point x="309" y="1248" type="line"/>
      <point x="309" y="1285" type="line"/>
      <point x="309" y="1338"/>
      <point x="338" y="1417"/>
      <point x="365" y="1444" type="qcurve" smooth="yes"/>
      <point x="396" y="1473"/>
      <point x="488" y="1502"/>
      <point x="546" y="1502" type="qcurve" smooth="yes"/>
      <point x="580" y="1502"/>
      <point x="643" y="1484"/>
      <point x="675" y="1471" type="qcurve" smooth="yes" name="inserted"/>
      <point x="706" y="1458"/>
      <point x="770" y="1426"/>
      <point x="806" y="1413" type="qcurve" smooth="yes" name="inserted"/>
      <point x="841" y="1400"/>
      <point x="920" y="1382"/>
      <point x="966" y="1382" type="qcurve" smooth="yes"/>
      <point x="1009" y="1382" type="line"/>
      <point x="1009" y="1248" type="line"/>
      <point x="964" y="1248" type="line" smooth="yes"/>
      <point x="917" y="1248"/>
      <point x="835" y="1264"/>
      <point x="799" y="1275" type="qcurve" smooth="yes"/>
      <point x="751" y="1293"/>
      <point x="672" y="1330"/>
      <point x="637" y="1345" type="qcurve" smooth="yes"/>
      <point x="614" y="1355"/>
      <point x="571" y="1368"/>
      <point x="550" y="1368" type="qcurve" smooth="yes"/>
      <point x="523" y="1368"/>
      <point x="479" y="1352"/>
      <point x="466" y="1336" type="qcurve" smooth="yes"/>
      <point x="456" y="1323"/>
      <point x="445" y="1289"/>
      <point x="445" y="1266" type="qcurve" smooth="yes"/>
      <point x="445" y="1248" type="line"/>
    </contour>
    <contour>
      <point x="519" y="1002" type="line"/>
      <point x="552" y="1044"/>
      <point x="587" y="1115"/>
      <point x="587" y="1153" type="qcurve" smooth="yes"/>
      <point x="587" y="1248" type="line"/>
      <point x="736" y="1248" type="line"/>
      <point x="736" y="1146" type="line" smooth="yes"/>
      <point x="736" y="1117"/>
      <point x="713" y="1057"/>
      <point x="694.0" y="1030.0" type="qcurve" smooth="yes" name="inserted"/>
      <point x="675" y="1003"/>
      <point x="626" y="958"/>
      <point x="601" y="945" type="qcurve"/>
    </contour>
  </outline>
</glyph>
<glyph name="uni0480" format="2">
  <advance width="1229"/>
  <unicode hex="0480"/>
  <outline>
    <contour>
      <point x="866" y="-365" type="line"/>
      <point x="585" y="-365" type="line"/>
      <point x="585" y="-13" type="line"/>
      <point x="479" y="3"/>
      <point x="309" y="104"/>
      <point x="249" y="182" type="qcurve" smooth="yes" name="inserted"/>
      <point x="189" y="260"/>
      <point x="125" y="463"/>
      <point x="125" y="582" type="qcurve" smooth="yes"/>
      <point x="125" y="872" type="line" smooth="yes"/>
      <point x="125" y="1004"/>
      <point x="196" y="1227"/>
      <point x="262" y="1307" type="qcurve" smooth="yes" name="inserted"/>
      <point x="327" y="1387"/>
      <point x="512" y="1477"/>
      <point x="626" y="1477" type="qcurve" smooth="yes"/>
      <point x="741" y="1477"/>
      <point x="920" y="1411"/>
      <point x="982" y="1347" type="qcurve" smooth="yes" name="inserted"/>
      <point x="1044" y="1283"/>
      <point x="1109" y="1095"/>
      <point x="1109" y="973" type="qcurve"/>
      <point x="828" y="973" type="line"/>
      <point x="828" y="1045"/>
      <point x="804" y="1151"/>
      <point x="779" y="1185" type="qcurve" smooth="yes"/>
      <point x="755" y="1217"/>
      <point x="679" y="1249"/>
      <point x="626" y="1249" type="qcurve" smooth="yes"/>
      <point x="571" y="1249"/>
      <point x="488" y="1193"/>
      <point x="461" y="1143" type="qcurve" smooth="yes" name="inserted"/>
      <point x="433" y="1092"/>
      <point x="405" y="955"/>
      <point x="405" y="874" type="qcurve" smooth="yes"/>
      <point x="405" y="582" type="line" smooth="yes"/>
      <point x="405" y="501"/>
      <point x="441" y="363"/>
      <point x="477" y="313" type="qcurve" smooth="yes" name="inserted"/>
      <point x="512" y="262"/>
      <point x="617" y="205"/>
      <point x="686" y="205" type="qcurve" smooth="yes"/>
      <point x="866" y="205" type="line"/>
    </contour>
  </outline>
</glyph>
<glyph name="uni048F" format="2">
  <advance width="1229"/>
  <unicode hex="048F"/>
  <outline>
    <contour>
      <point x="1090" y="-8" type="line"/>
      <point x="980" y="-89" type="line"/>
      <point x="567" y="362" type="line"/>
      <point x="675" y="443" type="line"/>
    </contour>
    <contour>
      <point x="1113" y="531" type="line" smooth="yes"/>
      <point x="1113" y="413"/>
      <point x="1058" y="211"/>
      <point x="1005" y="138" type="qcurve" smooth="yes" name="inserted"/>
      <point x="951" y="64"/>
      <point x="793" y="-20"/>
      <point x="691" y="-20" type="qcurve" smooth="yes"/>
      <point x="643" y="-20"/>
      <point x="559" y="-1"/>
      <point x="524" y="17" type="qcurve" smooth="yes"/>
      <point x="495" y="31"/>
      <point x="445" y="70"/>
      <point x="423" y="94" type="qcurve"/>
      <point x="423" y="-416" type="line"/>
      <point x="145" y="-416" type="line"/>
      <point x="145" y="1082" type="line"/>
      <point x="402" y="1082" type="line"/>
      <point x="412" y="976" type="line"/>
      <point x="433" y="1002"/>
      <point x="483" y="1044"/>
      <point x="511" y="1059" type="qcurve" smooth="yes"/>
      <point x="548" y="1080"/>
      <point x="637" y="1102"/>
      <point x="689" y="1102" type="qcurve" smooth="yes"/>
      <point x="792" y="1102"/>
      <point x="950" y="1023"/>
      <point x="1004" y="951" type="qcurve" smooth="yes" name="inserted"/>
      <point x="1058" y="878"/>
      <point x="1113" y="675"/>
      <point x="1113" y="552" type="qcurve" smooth="yes"/>
    </contour>
    <contour>
      <point x="835" y="552" type="line" smooth="yes"/>
      <point x="835" y="620"/>
      <point x="810" y="739"/>
      <point x="784" y="783" type="qcurve" smooth="yes" name="inserted"/>
      <point x="757" y="826"/>
      <point x="674" y="876"/>
      <point x="615" y="876" type="qcurve" smooth="yes"/>
      <point x="581" y="876"/>
      <point x="524" y="863"/>
      <point x="501" y="851" type="qcurve" smooth="yes"/>
      <point x="476" y="837"/>
      <point x="437" y="795"/>
      <point x="423" y="767" type="qcurve"/>
      <point x="423" y="315" type="line"/>
      <point x="436" y="289"/>
      <point x="473" y="247"/>
      <point x="497" y="232" type="qcurve" smooth="yes"/>
      <point x="521" y="218"/>
      <point x="580" y="203"/>
      <point x="617" y="203" type="qcurve" smooth="yes"/>
      <point x="676" y="203"/>
      <point x="759" y="255"/>
      <point x="785" y="300" type="qcurve" smooth="yes" name="inserted"/>
      <point x="811" y="345"/>
      <point x="835" y="464"/>
      <point x="835" y="531" type="qcurve" smooth="yes"/>
    </contour>
  </outline>
</glyph>
<glyph name="uni0492" format="2">
  <advance width="1229"/>
  <unicode hex="0492"/>
  <outline>
    <contour>
      <point x="667" y="663" type="line"/>
      <point x="422" y="663" type="line"/>
      <point x="422" y="0" type="line"/>
      <point x="141" y="0" type="line"/>
      <point x="141" y="663" type="line"/>
      <point x="-25" y="663" type="line"/>
      <point x="-25" y="843" type="line"/>
      <point x="141" y="843" type="line"/>
      <point x="141" y="1456" type="line"/>
      <point x="1083" y="1456" type="line"/>
      <point x="1083" y="1228" type="line"/>
      <point x="422" y="1228" type="line"/>
      <point x="422" y="843" type="line"/>
      <point x="667" y="843" type="line"/>
    </contour>
  </outline>
</glyph>
<glyph name="uni04A1" format="2">
  <advance width="1229"/>
  <unicode hex="04A1"/>
  <outline>
    <contour>
      <point x="687" y="393" type="line"/>
      <point x="619" y="393" type="line"/>
      <point x="619" y="0" type="line"/>
      <point x="334" y="0" type="line"/>
      <point x="334" y="840" type="line"/>
      <point x="27" y="840" type="line"/>
      <point x="27" y="1082" type="line"/>
      <point x="619" y="1082" type="line"/>
      <point x="619" y="680" type="line"/>
      <point x="689" y="680" type="line"/>
      <point x="842" y="1082" type="line"/>
      <point x="1196" y="1082" type="line"/>
      <point x="921" y="570" type="line"/>
      <point x="1225" y="0" type="line"/>
      <point x="853" y="0" type="line"/>
    </contour>
  </outline>
</glyph>
<glyph name="uni04A6" format="2">
  <advance width="1229"/>
  <unicode hex="04A6"/>
  <outline>
    <contour>
      <point x="751" y="834" type="line"/>
      <point x="772" y="834" type="line" smooth="yes"/>
      <point x="889" y="833"/>
      <point x="1051" y="729"/>
      <point x="1101" y="646" type="qcurve" smooth="yes" name="inserted"/>
      <point x="1119" y="616"/>
      <point x="1147" y="551"/>
      <point x="1158" y="516" type="qcurve" smooth="yes"/>
      <point x="1178" y="453"/>
      <point x="1197" y="315"/>
      <point x="1197" y="246" type="qcurve" smooth="yes"/>
      <point x="1197" y="170"/>
      <point x="1178" y="23"/>
      <point x="1157" y="-42" type="qcurve" smooth="yes" name="inserted"/>
      <point x="1135" y="-108"/>
      <point x="1068" y="-219"/>
      <point x="1020" y="-259" type="qcurve" smooth="yes" name="inserted"/>
      <point x="972" y="-300"/>
      <point x="846" y="-347"/>
      <point x="766" y="-348" type="qcurve"/>
      <point x="764" y="-120" type="line"/>
      <point x="801" y="-119"/>
      <point x="850" y="-86"/>
      <point x="866" y="-58" type="qcurve" smooth="yes" name="inserted"/>
      <point x="881" y="-31"/>
      <point x="898" y="39"/>
      <point x="902" y="78" type="qcurve" smooth="yes" name="inserted"/>
      <point x="905" y="116"/>
      <point x="906" y="195"/>
      <point x="906" y="230" type="qcurve" smooth="yes"/>
      <point x="906" y="257"/>
      <point x="904" y="332"/>
      <point x="900" y="372" type="qcurve" smooth="yes" name="inserted"/>
      <point x="895" y="412"/>
      <point x="878" y="490"/>
      <point x="863" y="521" type="qcurve" smooth="yes" name="inserted"/>
      <point x="848" y="552"/>
      <point x="802" y="591"/>
      <point x="770" y="592" type="qcurve" smooth="yes"/>
      <point x="751" y="592" type="line"/>
      <point x="751" y="0" type="line"/>
      <point x="483" y="0" type="line"/>
      <point x="483" y="1207" type="line"/>
      <point x="318" y="1207" type="line"/>
      <point x="318" y="0" type="line"/>
      <point x="50" y="0" type="line"/>
      <point x="50" y="1456" type="line"/>
      <point x="751" y="1456" type="line"/>
    </contour>
  </outline>
</glyph>
<glyph name="uni04A8" format="2">
  <advance width="1229"/>
  <unicode hex="04A8"/>
  <outline>
    <contour>
      <point x="1198" y="-17" type="line"/>
      <point x="1113" y="-17"/>
      <point x="961" y="14"/>
      <point x="893" y="43" type="qcurve"/>
      <point x="839" y="12"/>
      <point x="719" y="-21"/>
      <point x="651" y="-21" type="qcurve" smooth="yes"/>
      <point x="585" y="-21"/>
      <point x="464" y="6"/>
      <point x="411" y="31" type="qcurve" smooth="yes"/>
      <point x="312" y="77"/>
      <point x="165" y="252"/>
      <point x="129" y="356" type="qcurve" smooth="yes"/>
      <point x="110" y="412"/>
      <point x="88" y="537"/>
      <point x="88" y="603" type="qcurve" smooth="yes"/>
      <point x="88" y="925" type="line" smooth="yes"/>
      <point x="88" y="1005"/>
      <point x="115" y="1152"/>
      <point x="140" y="1214" type="qcurve" smooth="yes"/>
      <point x="164" y="1276"/>
      <point x="238" y="1378"/>
      <point x="284" y="1411" type="qcurve" smooth="yes"/>
      <point x="325" y="1443"/>
      <point x="423" y="1477"/>
      <point x="478" y="1477" type="qcurve"/>
      <point x="478" y="1240" type="line"/>
      <point x="466" y="1240"/>
      <point x="445" y="1227"/>
      <point x="436" y="1215" type="qcurve" smooth="yes"/>
      <point x="428" y="1204"/>
      <point x="414" y="1171"/>
      <point x="408" y="1151" type="qcurve" smooth="yes" name="inserted"/>
      <point x="396" y="1109"/>
      <point x="383" y="994"/>
      <point x="383" y="927" type="qcurve" smooth="yes"/>
      <point x="383" y="603" type="line" smooth="yes"/>
      <point x="383" y="558"/>
      <point x="393" y="474"/>
      <point x="403" y="437" type="qcurve" smooth="yes"/>
      <point x="421" y="372"/>
      <point x="487" y="273"/>
      <point x="534" y="245" type="qcurve" smooth="yes"/>
      <point x="557" y="231"/>
      <point x="606" y="215"/>
      <point x="649" y="214" type="qcurve" smooth="yes"/>
      <point x="652" y="214"/>
      <point x="659" y="214"/>
      <point x="663" y="214" type="qcurve"/>
      <point x="628" y="256"/>
      <point x="573" y="353"/>
      <point x="554" y="406" type="qcurve" smooth="yes"/>
      <point x="533" y="464"/>
      <point x="511" y="596"/>
      <point x="511" y="667" type="qcurve" smooth="yes"/>
      <point x="511" y="987" type="line" smooth="yes"/>
      <point x="511" y="1091"/>
      <point x="557" y="1269"/>
      <point x="600" y="1335" type="qcurve" smooth="yes" name="inserted"/>
      <point x="642" y="1400"/>
      <point x="762" y="1475"/>
      <point x="835" y="1475" type="qcurve" smooth="yes"/>
      <point x="914" y="1475"/>
      <point x="1043" y="1397"/>
      <point x="1090" y="1327" type="qcurve" smooth="yes" name="inserted"/>
      <point x="1136" y="1256"/>
      <point x="1187" y="1062"/>
      <point x="1187" y="946" type="qcurve" smooth="yes"/>
      <point x="1187" y="643" type="line" smooth="yes"/>
      <point x="1187" y="577"/>
      <point x="1170" y="453"/>
      <point x="1154" y="397" type="qcurve" smooth="yes"/>
      <point x="1139" y="348"/>
      <point x="1099" y="258"/>
      <point x="1073" y="218" type="qcurve"/>
      <point x="1101" y="210" name="inserted"/>
      <point x="1163" y="202"/>
      <point x="1198" y="202" type="qcurve"/>
    </contour>
    <contour>
      <point x="778" y="665" type="line" smooth="yes"/>
      <point x="778" y="620"/>
      <point x="789" y="536"/>
      <point x="800" y="498" type="qcurve" smooth="yes"/>
      <point x="810" y="465"/>
      <point x="838" y="403"/>
      <point x="856" y="375" type="qcurve"/>
      <point x="867" y="401"/>
      <point x="885" y="458"/>
      <point x="891" y="489" type="qcurve" smooth="yes"/>
      <point x="899" y="524"/>
      <point x="906" y="602"/>
      <point x="906" y="643" type="qcurve" smooth="yes"/>
      <point x="906" y="975" type="line" smooth="yes"/>
      <point x="906" y="1050"/>
      <point x="896" y="1152"/>
      <point x="887" y="1183" type="qcurve" smooth="yes" name="inserted"/>
      <point x="878" y="1213"/>
      <point x="852" y="1240"/>
      <point x="835" y="1240" type="qcurve" smooth="yes"/>
      <point x="823" y="1240"/>
      <point x="804" y="1221"/>
      <point x="797" y="1200" type="qcurve" smooth="yes"/>
      <point x="787" y="1172"/>
      <point x="778" y="1067"/>
      <point x="778" y="988" type="qcurve" smooth="yes"/>
    </contour>
  </outline>
</glyph>
<glyph name="uni04B5" format="2">
  <advance width="1229"/>
  <unicode hex="04B5"/>
  <outline>
    <contour>
      <point x="221" y="841" type="line"/>
      <point x="33" y="841" type="line"/>
      <point x="33" y="1082" type="line"/>
      <point x="679" y="1082" type="line"/>
      <point x="679" y="841" type="line"/>
      <point x="507" y="841" type="line"/>
      <point x="507" y="240" type="line"/>
      <point x="780" y="240" type="line"/>
      <point x="780" y="1082" type="line"/>
      <point x="1067" y="1082" type="line"/>
      <point x="1067" y="238" type="line"/>
      <point x="1215" y="238" type="line"/>
      <point x="1196" y="-321" type="line"/>
      <point x="928" y="-321" type="line"/>
      <point x="928" y="0" type="line"/>
      <point x="221" y="0" type="line"/>
    </contour>
  </outline>
</glyph>
<glyph name="uni04B9" format="2">
  <advance width="1229"/>
  <unicode hex="04B9"/>
  <outline>
    <contour>
      <point x="697" y="165" type="line"/>
      <point x="532" y="165" type="line"/>
      <point x="532" y="805" type="line"/>
      <point x="697" y="805" type="line"/>
    </contour>
    <contour>
      <point x="1113" y="0" type="line"/>
      <point x="834" y="0" type="line"/>
      <point x="834" y="349" type="line"/>
      <point x="782" y="339"/>
      <point x="673" y="328"/>
      <point x="622" y="328" type="qcurve" smooth="yes"/>
      <point x="505" y="328"/>
      <point x="317" y="377"/>
      <point x="252" y="428" type="qcurve" smooth="yes" name="inserted"/>
      <point x="186" y="478"/>
      <point x="116" y="634"/>
      <point x="116" y="742" type="qcurve" smooth="yes"/>
      <point x="116" y="1082" type="line"/>
      <point x="394" y="1082" type="line"/>
      <point x="394" y="742" type="line" smooth="yes"/>
      <point x="394" y="688"/>
      <point x="421" y="615"/>
      <point x="449" y="593" type="qcurve" smooth="yes" name="inserted"/>
      <point x="477" y="571"/>
      <point x="563" y="552"/>
      <point x="622" y="552" type="qcurve" smooth="yes"/>
      <point x="659" y="552"/>
      <point x="729" y="557"/>
      <point x="763" y="561" type="qcurve" smooth="yes"/>
      <point x="780" y="564"/>
      <point x="816" y="570"/>
      <point x="834" y="574" type="qcurve"/>
      <point x="834" y="1082" type="line"/>
      <point x="1113" y="1082" type="line"/>
    </contour>
  </outline>
</glyph>
<glyph name="uni04D8" format="2">
  <advance width="1229"/>
  <unicode hex="04D8"/>
  <outline>
    <contour>
      <point x="563" y="1477" type="qcurve" smooth="yes"/>
      <point x="643" y="1477"/>
      <point x="782" y="1448"/>
      <point x="840" y="1420" type="qcurve" smooth="yes"/>
      <point x="928.6594454445185" y="1378.6255921258912"/>
      <point x="1055.4473135938174" y="1237.3510112151137"/>
      <point x="1092" y="1148" type="qcurve" smooth="yes"/>
      <point x="1116" y="1087"/>
      <point x="1140" y="949"/>
      <point x="1140" y="873" type="qcurve" smooth="yes"/>
      <point x="1140" y="597" type="line" smooth="yes"/>
      <point x="1140" y="505"/>
      <point x="1102" y="341"/>
      <point x="1066" y="272" type="qcurve" smooth="yes"/>
      <point x="1031" y="204"/>
      <point x="931" y="91"/>
      <point x="869" y="54" type="qcurve" smooth="yes"/>
      <point x="811" y="17"/>
      <point x="674" y="-22"/>
      <point x="600" y="-21" type="qcurve" smooth="yes"/>
      <point x="513" y="-21"/>
      <point x="368" y="19"/>
      <point x="310" y="56" type="qcurve" smooth="yes"/>
      <point x="255" y="94"/>
      <point x="169" y="198"/>
      <point x="139" y="265" type="qcurve" smooth="yes"/>
      <point x="109" y="334"/>
      <point x="78" y="503"/>
      <point x="78" y="600" type="qcurve" smooth="yes"/>
      <point x="78" y="804" type="line"/>
      <point x="859" y="804" type="line"/>
      <point x="859" y="873" type="line" smooth="yes"/>
      <point x="859" y="917"/>
      <point x="849" y="1001"/>
      <point x="837" y="1038" type="qcurve" smooth="yes"/>
      <point x="822.2000688352718" y="1090.856897016886"/>
      <point x="761.5386516178128" y="1174.3332303736847"/>
      <point x="716" y="1199" type="qcurve" smooth="yes"/>
      <point x="685" y="1216"/>
      <point x="609" y="1234"/>
      <point x="563" y="1234" type="qcurve" smooth="yes"/>
      <point x="507" y="1234"/>
      <point x="412" y="1221"/>
      <point x="372" y="1212" type="qcurve" smooth="yes" name="inserted"/>
      <point x="331" y="1202"/>
      <point x="266" y="1178"/>
      <point x="242" y="1168" type="qcurve"/>
      <point x="193" y="1395" type="line"/>
      <point x="207" y="1403"/>
      <point x="269" y="1431"/>
      <point x="316" y="1445" type="qcurve" smooth="yes" name="inserted"/>
      <point x="362" y="1458"/>
      <point x="486" y="1477"/>
    </contour>
    <contour>
      <point x="600" y="220" type="qcurve" smooth="yes"/>
      <point x="640" y="220"/>
      <point x="709" y="244"/>
      <point x="737" y="266" type="qcurve" smooth="yes"/>
      <point x="769.6204487376039" y="292.50411459930314"/>
      <point x="817.2986435552489" y="367.89593066574673"/>
      <point x="833" y="415" type="qcurve" smooth="yes"/>
      <point x="845" y="453"/>
      <point x="858" y="542"/>
      <point x="859" y="589" type="qcurve"/>
      <point x="358" y="589" type="line"/>
      <point x="358" y="498" type="line" smooth="yes"/>
      <point x="358" y="466"/>
      <point x="366" y="406"/>
      <point x="374" y="379" type="qcurve" smooth="yes"/>
      <point x="386" y="336"/>
      <point x="435" y="269"/>
      <point x="472" y="249" type="qcurve" smooth="yes"/>
      <point x="497" y="235"/>
      <point x="561" y="220"/>
    </contour>
  </outline>
</glyph>
<glyph name="uni0509" format="2">
  <advance width="1229"/>
  <unicode hex="0509"/>
  <outline>
    <contour>
      <point x="809" y="1082" type="line"/>
      <point x="809" y="311" type="line"/>
      <point x="809" y="299"/>
      <point x="810" y="275"/>
      <point x="811" y="265" type="qcurve" smooth="yes"/>
      <point x="813" y="253"/>
      <point x="818" y="233"/>
      <point x="822" y="225" type="qcurve" smooth="yes"/>
      <point x="827" y="216"/>
      <point x="840" y="205"/>
      <point x="848" y="205" type="qcurve"/>
      <point x="862" y="206"/>
      <point x="887" y="242"/>
      <point x="896" y="274" type="qcurve" smooth="yes"/>
      <point x="902" y="295"/>
      <point x="911" y="351"/>
      <point x="914" y="385" type="qcurve" smooth="yes"/>
      <point x="916" y="408"/>
      <point x="919" y="460"/>
      <point x="919" y="488" type="qcurve" smooth="yes"/>
      <point x="920" y="540"/>
      <point x="911" y="644"/>
      <point x="902" y="696" type="qcurve" smooth="yes"/>
      <point x="895" y="739"/>
      <point x="873" y="826"/>
      <point x="859" y="869" type="qcurve"/>
      <point x="1131" y="869" type="line"/>
      <point x="1158" y="776"/>
      <point x="1200" y="585"/>
      <point x="1198" y="488" type="qcurve" smooth="yes"/>
      <point x="1197" y="442"/>
      <point x="1189" y="357"/>
      <point x="1181" y="320" type="qcurve" smooth="yes"/>
      <point x="1167" y="253"/>
      <point x="1121" y="145"/>
      <point x="1091" y="105" type="qcurve" smooth="yes" name="inserted"/>
      <point x="1043" y="42"/>
      <point x="917" y="-21"/>
      <point x="848" y="-21" type="qcurve" smooth="yes"/>
      <point x="776" y="-23"/>
      <point x="662" y="14"/>
      <point x="621" y="55" type="qcurve" smooth="yes" name="inserted"/>
      <point x="594" y="81"/>
      <point x="555" y="154"/>
      <point x="544" y="201" type="qcurve" smooth="yes"/>
      <point x="539" y="225"/>
      <point x="531" y="281"/>
      <point x="530" y="311" type="qcurve"/>
      <point x="530" y="853" type="line"/>
      <point x="435" y="853" type="line"/>
      <point x="435" y="622" type="line" smooth="yes"/>
      <point x="435" y="539"/>
      <point x="424" y="394"/>
      <point x="414" y="334" type="qcurve" smooth="yes"/>
      <point x="404" y="282"/>
      <point x="376" y="193"/>
      <point x="358" y="157" type="qcurve" smooth="yes" name="inserted"/>
      <point x="345" y="133"/>
      <point x="315" y="92"/>
      <point x="298" y="75" type="qcurve" smooth="yes"/>
      <point x="259" y="38"/>
      <point x="156" y="0"/>
      <point x="91" y="0" type="qcurve" smooth="yes"/>
      <point x="40" y="0" type="line"/>
      <point x="44" y="241" type="line"/>
      <point x="65" y="242" type="line" smooth="yes"/>
      <point x="90" y="242"/>
      <point x="125" y="285"/>
      <point x="136" y="332" type="qcurve" smooth="yes" name="inserted"/>
      <point x="142" y="358"/>
      <point x="150" y="426"/>
      <point x="153" y="468" type="qcurve" smooth="yes"/>
      <point x="154" y="501"/>
      <point x="156" y="578"/>
      <point x="156" y="622" type="qcurve" smooth="yes"/>
      <point x="156" y="1082" type="line"/>
    </contour>
  </outline>
</glyph>
<glyph name="uni050A" format="2">
  <advance width="1229"/>
  <unicode hex="050A"/>
  <outline>
    <contour>
      <point x="817" y="1456" type="line"/>
      <point x="817" y="284" type="line"/>
      <point x="817" y="275"/>
      <point x="817" y="257"/>
      <point x="819" y="249" type="qcurve" smooth="yes"/>
      <point x="820" y="241"/>
      <point x="824" y="227"/>
      <point x="827" y="222" type="qcurve" smooth="yes"/>
      <point x="830" y="216"/>
      <point x="838" y="209"/>
      <point x="843" y="209" type="qcurve"/>
      <point x="858" y="210"/>
      <point x="882" y="249"/>
      <point x="891" y="285" type="qcurve" smooth="yes"/>
      <point x="897" y="310"/>
      <point x="907" y="377"/>
      <point x="910" y="417" type="qcurve" smooth="yes"/>
      <point x="912" y="442"/>
      <point x="915" y="498"/>
      <point x="916" y="529" type="qcurve" smooth="yes"/>
      <point x="917" y="629"/>
      <point x="885" y="832"/>
      <point x="855" y="932" type="qcurve"/>
      <point x="1130" y="932" type="line"/>
      <point x="1142" y="886"/>
      <point x="1166" y="793"/>
      <point x="1175" y="746" type="qcurve" smooth="yes"/>
      <point x="1186" y="693"/>
      <point x="1198" y="584"/>
      <point x="1197" y="529" type="qcurve" smooth="yes"/>
      <point x="1196" y="467"/>
      <point x="1183" y="355"/>
      <point x="1171" y="308" type="qcurve" smooth="yes"/>
      <point x="1157" y="249"/>
      <point x="1114" y="152"/>
      <point x="1088" y="115" type="qcurve" smooth="yes" name="inserted"/>
      <point x="1039" y="47"/>
      <point x="911" y="-21"/>
      <point x="841" y="-21" type="qcurve" smooth="yes"/>
      <point x="772" y="-23"/>
      <point x="663" y="16"/>
      <point x="624" y="59" type="qcurve" smooth="yes" name="inserted"/>
      <point x="599" y="86"/>
      <point x="563" y="159"/>
      <point x="552" y="205" type="qcurve" smooth="yes"/>
      <point x="545" y="233"/>
      <point x="537" y="297"/>
      <point x="535" y="333" type="qcurve" smooth="yes"/>
      <point x="535" y="604" type="line"/>
      <point x="354" y="604" type="line"/>
      <point x="354" y="0" type="line"/>
      <point x="72" y="0" type="line"/>
      <point x="72" y="1456" type="line"/>
      <point x="354" y="1456" type="line"/>
      <point x="354" y="830" type="line"/>
      <point x="535" y="830" type="line"/>
      <point x="535" y="1456" type="line"/>
    </contour>
  </outline>
</glyph>
<glyph name="uni0510" format="2">
  <advance width="1229"/>
  <unicode hex="0510"/>
  <outline>
    <contour>
      <point x="66" y="408" type="qcurve" smooth="yes"/>
      <point x="66" y="482"/>
      <point x="111" y="604"/>
      <point x="153" y="649" type="qcurve" smooth="yes"/>
      <point x="183" y="681"/>
      <point x="264" y="731"/>
      <point x="314" y="748" type="qcurve"/>
      <point x="261" y="772"/>
      <point x="177" y="838"/>
      <point x="148" y="879" type="qcurve" smooth="yes" name="inserted"/>
      <point x="119" y="919"/>
      <point x="88" y="1011"/>
      <point x="88" y="1061" type="qcurve" smooth="yes"/>
      <point x="88" y="1163"/>
      <point x="164" y="1318"/>
      <point x="234" y="1371" type="qcurve" smooth="yes" name="inserted"/>
      <point x="304" y="1423"/>
      <point x="501" y="1477"/>
      <point x="622" y="1477" type="qcurve" smooth="yes"/>
      <point x="720" y="1477"/>
      <point x="896" y="1420"/>
      <point x="962" y="1367" type="qcurve" smooth="yes" name="inserted"/>
      <point x="1028" y="1313"/>
      <point x="1106" y="1161"/>
      <point x="1106" y="1065" type="qcurve"/>
      <point x="824" y="1065" type="line"/>
      <point x="824" y="1107"/>
      <point x="793" y="1175"/>
      <point x="766" y="1199" type="qcurve" smooth="yes" name="inserted"/>
      <point x="739" y="1223"/>
      <point x="665" y="1249"/>
      <point x="622" y="1249" type="qcurve" smooth="yes"/>
      <point x="556" y="1249"/>
      <point x="461" y="1218"/>
      <point x="430" y="1192" type="qcurve" smooth="yes" name="inserted"/>
      <point x="399" y="1166"/>
      <point x="369" y="1095"/>
      <point x="369" y="1056" type="qcurve" smooth="yes"/>
      <point x="369" y="1010"/>
      <point x="395" y="935"/>
      <point x="424" y="908" type="qcurve" smooth="yes" name="inserted"/>
      <point x="452" y="881"/>
      <point x="542" y="852"/>
      <point x="605" y="852" type="qcurve" smooth="yes"/>
      <point x="802" y="852" type="line"/>
      <point x="802" y="632" type="line"/>
      <point x="605" y="632" type="line" smooth="yes"/>
      <point x="533" y="632"/>
      <point x="427" y="599"/>
      <point x="395" y="564" type="qcurve" smooth="yes"/>
      <point x="371" y="537"/>
      <point x="347" y="461"/>
      <point x="347" y="411" type="qcurve" smooth="yes"/>
      <point x="347" y="367"/>
      <point x="384" y="292"/>
      <point x="419" y="264" type="qcurve" smooth="yes" name="inserted"/>
      <point x="454" y="236"/>
      <point x="556" y="205"/>
      <point x="622" y="205" type="qcurve" smooth="yes"/>
      <point x="671" y="205"/>
      <point x="754" y="236"/>
      <point x="783" y="263" type="qcurve" smooth="yes" name="inserted"/>
      <point x="812" y="290"/>
      <point x="845" y="362"/>
      <point x="845" y="404" type="qcurve"/>
      <point x="1126" y="404" type="line"/>
      <point x="1126" y="299"/>
      <point x="1047" y="145"/>
      <point x="982" y="92" type="qcurve" smooth="yes"/>
      <point x="910" y="34"/>
      <point x="718.9596843010006" y="-21.0"/>
      <point x="622" y="-21" type="qcurve" smooth="yes"/>
      <point x="501" y="-21"/>
      <point x="297" y="36"/>
      <point x="223" y="91" type="qcurve" smooth="yes" name="inserted"/>
      <point x="149" y="146"/>
      <point x="66" y="306"/>
    </contour>
  </outline>
</glyph>
<glyph name="Eogonek.smcp" format="2">
  <advance width="1229"/>
  <outline>
    <contour>
      <point x="988" y="494" type="line"/>
      <point x="439" y="494" type="line"/>
      <point x="439" y="221" type="line"/>
      <point x="1074" y="221" type="line"/>
      <point x="1074" y="0" type="line"/>
      <point x="943" y="0" type="line"/>
      <point x="898" y="-18"/>
      <point x="838" y="-58"/>
      <point x="820" y="-80" type="qcurve" smooth="yes" name="inserted"/>
      <point x="802" y="-102"/>
      <point x="787" y="-151"/>
      <point x="787" y="-178" type="qcurve" smooth="yes"/>
      <point x="787" y="-207"/>
      <point x="817" y="-246"/>
      <point x="854" y="-246" type="qcurve" smooth="yes"/>
      <point x="883" y="-246"/>
      <point x="923" y="-232"/>
      <point x="937" y="-226" type="qcurve"/>
      <point x="984" y="-380" type="line"/>
      <point x="956" y="-395"/>
      <point x="867" y="-424"/>
      <point x="798" y="-424" type="qcurve" smooth="yes"/>
      <point x="752" y="-424"/>
      <point x="671" y="-397"/>
      <point x="641" y="-371" type="qcurve" smooth="yes" name="inserted"/>
      <point x="611" y="-345"/>
      <point x="576" y="-268"/>
      <point x="576" y="-217" type="qcurve" smooth="yes"/>
      <point x="576" y="-185"/>
      <point x="594" y="-121"/>
      <point x="613" y="-91" type="qcurve" smooth="yes"/>
      <point x="627" y="-67"/>
      <point x="667" y="-21"/>
      <point x="693" y="0" type="qcurve"/>
      <point x="160" y="0" type="line"/>
      <point x="160" y="1165" type="line"/>
      <point x="1080" y="1165" type="line"/>
      <point x="1080" y="942" type="line"/>
      <point x="439" y="942" type="line"/>
      <point x="439" y="717" type="line"/>
      <point x="988" y="717" type="line"/>
    </contour>
  </outline>
</glyph>
<glyph name="K.smcp" format="2">
  <advance width="1229"/>
  <outline>
    <contour>
      <point x="562" y="444" type="line"/>
      <point x="433" y="318" type="line"/>
      <point x="433" y="0" type="line"/>
      <point x="154" y="0" type="line"/>
      <point x="154" y="1165" type="line"/>
      <point x="433" y="1165" type="line"/>
      <point x="433" y="672" type="line"/>
      <point x="534" y="804" type="line"/>
      <point x="828" y="1165" type="line"/>
      <point x="1175" y="1165" type="line"/>
      <point x="750" y="642" type="line"/>
      <point x="1189" y="0" type="line"/>
      <point x="858" y="0" type="line"/>
    </contour>
  </outline>
</glyph>
<glyph name="S.smcp" format="2">
  <advance width="1229"/>
  <outline>
    <contour>
      <point x="850" y="316" type="qcurve" smooth="yes"/>
      <point x="850" y="347"/>
      <point x="819" y="393"/>
      <point x="788.0" y="411.5" type="qcurve" smooth="yes" name="inserted"/>
      <point x="757" y="430"/>
      <point x="665" y="460"/>
      <point x="604" y="474" type="qcurve" smooth="yes"/>
      <point x="500" y="501"/>
      <point x="339" y="556"/>
      <point x="284.0" y="596.0" type="qcurve" smooth="yes" name="inserted"/>
      <point x="229" y="636"/>
      <point x="173" y="753"/>
      <point x="173" y="840" type="qcurve" smooth="yes"/>
      <point x="173" y="922"/>
      <point x="244" y="1049"/>
      <point x="306.0" y="1092.5" type="qcurve" smooth="yes" name="inserted"/>
      <point x="368" y="1136"/>
      <point x="535" y="1181"/>
      <point x="631" y="1181" type="qcurve" smooth="yes"/>
      <point x="731" y="1181"/>
      <point x="905" y="1141"/>
      <point x="969.5" y="1097.5" type="qcurve" smooth="yes" name="inserted"/>
      <point x="1034" y="1054"/>
      <point x="1108" y="914"/>
      <point x="1110" y="815" type="qcurve"/>
      <point x="831" y="815" type="line"/>
      <point x="831" y="849"/>
      <point x="801" y="908"/>
      <point x="774.0" y="929.0" type="qcurve" smooth="yes" name="inserted"/>
      <point x="747" y="950"/>
      <point x="675" y="974"/>
      <point x="633" y="974" type="qcurve" smooth="yes"/>
      <point x="586" y="974"/>
      <point x="514" y="954"/>
      <point x="489.0" y="936.5" type="qcurve" smooth="yes" name="inserted"/>
      <point x="464" y="919"/>
      <point x="438" y="874"/>
      <point x="438" y="850" type="qcurve" smooth="yes"/>
      <point x="438" y="819"/>
      <point x="462" y="776"/>
      <point x="489.5" y="759.5" type="qcurve" smooth="yes" name="inserted"/>
      <point x="517" y="743"/>
      <point x="605" y="715"/>
      <point x="669" y="700" type="qcurve" smooth="yes"/>
      <point x="772" y="676"/>
      <point x="938" y="617"/>
      <point x="996.0" y="574.5" type="qcurve" smooth="yes" name="inserted"/>
      <point x="1054" y="532"/>
      <point x="1116" y="410"/>
      <point x="1116" y="322" type="qcurve" smooth="yes"/>
      <point x="1116" y="236"/>
      <point x="1043" y="109"/>
      <point x="978.5" y="67.0" type="qcurve" smooth="yes" name="inserted"/>
      <point x="914" y="25"/>
      <point x="737" y="-16"/>
      <point x="633" y="-16" type="qcurve" smooth="yes"/>
      <point x="572" y="-16"/>
      <point x="451" y="-1"/>
      <point x="395.5" y="16.5" type="qcurve" smooth="yes" name="inserted"/>
      <point x="340" y="34"/>
      <point x="244" y="92"/>
      <point x="208.5" y="134.0" type="qcurve" smooth="yes" name="inserted"/>
      <point x="173" y="176"/>
      <point x="132" y="289"/>
      <point x="131" y="363" type="qcurve"/>
      <point x="410" y="363" type="line"/>
      <point x="410" y="313"/>
      <point x="447" y="246"/>
      <point x="479.0" y="226.0" type="qcurve" smooth="yes" name="inserted"/>
      <point x="511" y="206"/>
      <point x="597" y="188"/>
      <point x="646" y="188" type="qcurve" smooth="yes"/>
      <point x="697" y="188"/>
      <point x="773" y="210"/>
      <point x="798.5" y="228.0" type="qcurve" smooth="yes" name="inserted"/>
      <point x="824" y="246"/>
      <point x="850" y="292"/>
    </contour>
  </outline>
</glyph>
<glyph name="Y.smcp" format="2">
  <advance width="1229"/>
  <outline>
    <contour>
      <point x="485" y="0" type="line"/>
      <point x="485" y="416" type="line"/>
      <point x="58" y="1165" type="line"/>
      <point x="362" y="1165" type="line"/>
      <point x="613" y="673" type="line"/>
      <point x="628" y="644" type="line"/>
      <point x="643" y="673" type="line"/>
      <point x="895" y="1165" type="line"/>
      <point x="1198" y="1165" type="line"/>
      <point x="765" y="407" type="line"/>
      <point x="765" y="0" type="line"/>
    </contour>
  </outline>
</glyph>
<glyph name="Z.smcp" format="2">
  <advance width="1229"/>
  <outline>
    <contour>
      <point x="512" y="221" type="line"/>
      <point x="1099" y="221" type="line"/>
      <point x="1099" y="0" type="line"/>
      <point x="153" y="0" type="line"/>
      <point x="153" y="142" type="line"/>
      <point x="732" y="942" type="line"/>
      <point x="173" y="942" type="line"/>
      <point x="173" y="1165" type="line"/>
      <point x="1089" y="1165" type="line"/>
      <point x="1089" y="1026" type="line"/>
    </contour>
  </outline>
</glyph>
<glyph name="circumflextildecomb" format="2">
  <advance width="1229"/>
  <outline>
    <contour>
      <point x="1023" y="1258" type="line"/>
      <point x="820" y="1258" type="line"/>
      <point x="656" y="1408" type="line"/>
      <point x="492" y="1258" type="line"/>
      <point x="288" y="1258" type="line"/>
      <point x="568" y="1506" type="line"/>
      <point x="743" y="1506" type="line"/>
    </contour>
    <contour>
      <point x="915" y="1742" type="line"/>
      <point x="915" y="1709"/>
      <point x="895" y="1645"/>
      <point x="876.5" y="1620.0" type="qcurve" smooth="yes" name="inserted"/>
      <point x="858" y="1595"/>
      <point x="807" y="1565"/>
      <point x="776" y="1565" type="qcurve" smooth="yes"/>
      <point x="742" y="1565"/>
      <point x="688" y="1585"/>
      <point x="664.0" y="1597.0" type="qcurve" smooth="yes" name="inserted"/>
      <point x="640" y="1609"/>
      <point x="593" y="1629"/>
      <point x="565" y="1629" type="qcurve" smooth="yes"/>
      <point x="553" y="1629"/>
      <point x="532" y="1614"/>
      <point x="524.5" y="1601.5" type="qcurve" smooth="yes" name="inserted"/>
      <point x="517" y="1589"/>
      <point x="508" y="1557"/>
      <point x="508" y="1539" type="qcurve"/>
      <point x="410" y="1567" type="line"/>
      <point x="410" y="1600"/>
      <point x="430" y="1664"/>
      <point x="448.0" y="1689.0" type="qcurve" smooth="yes" name="inserted"/>
      <point x="466" y="1714"/>
      <point x="517" y="1745"/>
      <point x="548" y="1745" type="qcurve" smooth="yes"/>
      <point x="576" y="1745"/>
      <point x="629" y="1725"/>
      <point x="655.0" y="1713.0" type="qcurve" smooth="yes" name="inserted"/>
      <point x="681" y="1701"/>
      <point x="732" y="1681"/>
      <point x="758" y="1681" type="qcurve" smooth="yes"/>
      <point x="770" y="1681"/>
      <point x="792" y="1697"/>
      <point x="799.5" y="1710.5" type="qcurve" smooth="yes" name="inserted"/>
      <point x="807" y="1724"/>
      <point x="816" y="1759"/>
      <point x="816" y="1777" type="qcurve"/>
    </contour>
  </outline>
</glyph>
<glyph name="cyrillichook" format="2">
  <advance width="1229"/>
  <outline>
    <contour>
      <point x="834" y="245" type="line"/>
      <point x="834" y="-40" type="line" smooth="yes"/>
      <point x="834" y="-136"/>
      <point x="783" y="-285"/>
      <point x="735" y="-335" type="qcurve" smooth="yes" name="inserted"/>
      <point x="687" y="-385"/>
      <point x="548" y="-437"/>
      <point x="461" y="-437" type="qcurve" smooth="yes"/>
      <point x="423" y="-437"/>
      <point x="358" y="-430"/>
      <point x="322" y="-420" type="qcurve"/>
      <point x="336" y="-196" type="line"/>
      <point x="357" y="-202"/>
      <point x="409" y="-208"/>
      <point x="434" y="-208" type="qcurve" smooth="yes"/>
      <point x="462" y="-208"/>
      <point x="507" y="-189"/>
      <point x="522" y="-169" type="qcurve" smooth="yes"/>
      <point x="539" y="-148"/>
      <point x="556" y="-83"/>
      <point x="556" y="-40" type="qcurve" smooth="yes"/>
      <point x="556" y="245" type="line"/>
    </contour>
  </outline>
</glyph>
<glyph name="two.sup" format="2">
  <advance width="1229"/>
  <outline>
    <contour>
      <point x="933" y="0" type="line"/>
      <point x="315" y="0" type="line"/>
      <point x="315" y="134" type="line"/>
      <point x="602" y="393" type="line" smooth="yes"/>
      <point x="627" y="415"/>
      <point x="664" y="456"/>
      <point x="677" y="475" type="qcurve" smooth="yes"/>
      <point x="693" y="499"/>
      <point x="708" y="538"/>
      <point x="708" y="552" type="qcurve" smooth="yes"/>
      <point x="708" y="569"/>
      <point x="698" y="599"/>
      <point x="689" y="610" type="qcurve" smooth="yes"/>
      <point x="677" y="624"/>
      <point x="638" y="639"/>
      <point x="611" y="639" type="qcurve" smooth="yes"/>
      <point x="580" y="639"/>
      <point x="535" y="618"/>
      <point x="521" y="600" type="qcurve" smooth="yes"/>
      <point x="509" y="585"/>
      <point x="498" y="547"/>
      <point x="498" y="527" type="qcurve"/>
      <point x="297" y="527" type="line"/>
      <point x="297" y="583"/>
      <point x="339" y="682"/>
      <point x="379" y="720" type="qcurve" smooth="yes" name="inserted"/>
      <point x="419" y="757"/>
      <point x="531" y="800"/>
      <point x="602" y="800" type="qcurve" smooth="yes"/>
      <point x="679" y="800"/>
      <point x="799" y="764"/>
      <point x="838" y="729" type="qcurve" smooth="yes"/>
      <point x="873" y="698"/>
      <point x="910" y="609"/>
      <point x="910" y="553" type="qcurve" smooth="yes"/>
      <point x="910" y="509"/>
      <point x="883" y="437"/>
      <point x="856" y="402" type="qcurve" smooth="yes" name="inserted"/>
      <point x="829" y="367"/>
      <point x="749" y="295"/>
      <point x="695" y="252" type="qcurve" smooth="yes"/>
      <point x="578" y="159" type="line"/>
      <point x="933" y="159" type="line"/>
    </contour>
  </outline>
</glyph>
